<svg xmlns="http://www.w3.org/2000/svg" width="228" height="194" viewBox="0 0 61 52" shape-rendering="geometricPrecision" text-rendering="geometricPrecision" image-rendering="optimizeQuality" fill-rule="evenodd" clip-rule="evenodd"><defs><style>.fil0{fill:#fefefe}</style></defs><g id="Слой_x0020_1"><g id="_1120210080"><path class="fil0" d="M31 52h-1L0 16v-1L11 0h39l11 15v1L31 52zM2 16l29 34 28-34L49 2H13L2 16z"/><path class="fil0" d="M60 17H1c-1 0-1-1-1-1 0-1 0-1 1-1h59c1 0 1 0 1 1 0 0 0 1-1 1z"/><path class="fil0" d="M31 52h-1v-1l11-36h1c1 0 1 1 1 1L32 51l-1 1z"/><path class="fil0" d="M31 52c-1 0-1 0-1-1L19 16c-1 0 0-1 0-1h1l12 36-1 1z"/><path class="fil0" d="M19 17v-1L11 1s0-1 1-1c0 0 1 0 1 1l7 14c1 1 0 1 0 2h-1z"/><path class="fil0" d="M19 17c0-1-1-1 0-2L30 0h1c1 0 1 1 0 1L20 16c0 1 0 1-1 1z"/><path class="fil0" d="M42 17c-1 0-1 0-1-1L30 1V0h1l11 15c1 1 1 1 0 2z"/><path class="fil0" d="M42 17h-1v-2l7-14c1-1 1-1 2-1v1l-7 15-1 1z"/></g></g></svg>