<svg xmlns="http://www.w3.org/2000/svg" width="234" height="168" viewBox="0 0 63 46" shape-rendering="geometricPrecision" text-rendering="geometricPrecision" image-rendering="optimizeQuality" fill-rule="evenodd" clip-rule="evenodd"><defs><style>.str0{stroke:#fefefe;stroke-width:2.35207}.fil0{fill:none}</style></defs><path class="fil0 str0" d="M58 7c-3 0-5 2-5 5 0 2 1 3 3 4-3 4-7 9-11 10-5 2-10-9-12-15 2-1 3-3 3-5 0-3-2-5-4-5-3 0-5 2-5 5 0 2 2 4 3 5-2 6-7 17-12 15-4-1-7-6-10-10 1-1 2-2 2-4 0-3-2-5-4-5-3 0-5 2-5 5s2 5 5 5l6 27h40l6-27c2 0 4-2 4-5s-2-5-4-5z" id="Слой_x0020_1"/></svg>