<?xml version="1.0" encoding="UTF-8"?>
<!DOCTYPE svg PUBLIC "-//W3C//DTD SVG 1.1//EN" "http://www.w3.org/Graphics/SVG/1.1/DTD/svg11.dtd">
<!-- Creator: CorelDRAW X8 -->
<svg xmlns="http://www.w3.org/2000/svg" xml:space="preserve" width="7.8405mm" height="2.1357mm" version="1.1" style="shape-rendering:geometricPrecision; text-rendering:geometricPrecision; image-rendering:optimizeQuality; fill-rule:evenodd; clip-rule:evenodd"
viewBox="0 0 4 1"
 xmlns:xlink="http://www.w3.org/1999/xlink">
 <defs>
  <style type="text/css">
   <![CDATA[
    .str0 {stroke:#FEFEFE;stroke-width:0.0435794}
    .fil0 {fill:#E31E24}
    .fil1 {fill:#FEFEFE;fill-rule:nonzero}
   ]]>
  </style>
 </defs>
 <g id="Слой_x0020_1">
  <metadata id="CorelCorpID_0Corel-Layer"/>
  <g id="_1666900017856">
   <path class="fil0 str0" d="M0 0c1,0 1,0 1,1 0,0 0,0 -1,0 0,0 0,0 0,0 0,-1 0,-1 0,-1z"/>
   <path class="fil1" d="M3 1l-1 0 0 0c0,0 0,0 0,0 0,0 0,0 0,0l0 0 0 0 0 0 0 -1 0 0c0,0 0,0 0,0 0,0 0,0 0,1 0,0 0,0 0,0l0 0c0,0 0,0 0,0l1 0zm-1 -1l0 1 0 0c0,0 0,0 0,-1 0,0 0,0 0,0 0,0 0,0 0,0l0 0zm1 1l0 0 0 -1 0 0 0 0 0 0 0 1 0 0 0 0 0 0 0 0 0 0 0 0zm1 0c0,0 0,0 0,0 0,0 0,0 0,0 0,0 0,0 0,0 0,-1 0,-1 0,-1 0,0 0,0 0,0 0,0 0,0 0,0l0 0c0,0 0,0 0,0 0,0 0,0 0,0 0,0 0,0 0,1 0,0 0,0 0,0 0,0 0,0 0,0 0,0 0,0 0,0l0 0z"/>
  </g>
 </g>
</svg>
