<?xml version="1.0" encoding="UTF-8"?>
<!DOCTYPE svg PUBLIC "-//W3C//DTD SVG 1.1//EN" "http://www.w3.org/Graphics/SVG/1.1/DTD/svg11.dtd">
<!-- Creator: CorelDRAW X7 -->
<svg xmlns="http://www.w3.org/2000/svg" xml:space="preserve" width="228px" height="194px" version="1.1" style="shape-rendering:geometricPrecision; text-rendering:geometricPrecision; image-rendering:optimizeQuality; fill-rule:evenodd; clip-rule:evenodd"
viewBox="0 0 61 52"
 xmlns:xlink="http://www.w3.org/1999/xlink">
 <defs>
  <style type="text/css">
   <![CDATA[
    .fil0 {fill:#FEFEFE}
   ]]>
  </style>
 </defs>
 <g id="Слой_x0020_1">
  <metadata id="CorelCorpID_0Corel-Layer"/>
  <g id="_1120210080">
   <path class="fil0" d="M31 52c-1,0 -1,0 -1,0l-30 -36c0,0 0,0 0,0l0 0c0,0 0,-1 0,-1l11 -15c0,0 1,0 1,0l37 0c0,0 1,0 1,0l11 15c0,1 0,1 0,1l-30 36c0,0 0,0 0,0zm-29 -36l29 34 28 -34 -10 -14 -36 0 -11 14z"/>
   <path class="fil0" d="M60 17l-59 0c-1,0 -1,-1 -1,-1 0,-1 0,-1 1,-1l59 0c1,0 1,0 1,1 0,0 0,1 -1,1z"/>
   <path class="fil0" d="M31 52c0,0 -1,0 -1,0 0,0 0,-1 0,-1l11 -36c0,0 1,0 1,0 1,0 1,1 1,1l-11 35c-1,1 -1,1 -1,1z"/>
   <path class="fil0" d="M31 52c-1,0 -1,0 -1,-1l-11 -35c-1,0 0,-1 0,-1 1,0 1,0 1,0l12 36c0,0 -1,1 -1,1 0,0 0,0 0,0z"/>
   <path class="fil0" d="M19 17c0,0 0,0 0,-1l-8 -15c0,0 0,-1 1,-1 0,0 1,0 1,1l7 14c1,1 0,1 0,2 0,0 0,0 -1,0z"/>
   <path class="fil0" d="M19 17c0,0 0,0 0,0 0,-1 -1,-1 0,-2l11 -15c0,0 1,0 1,0 1,0 1,1 0,1l-11 15c0,1 0,1 -1,1z"/>
   <path class="fil0" d="M42 17c-1,0 -1,0 -1,-1l-11 -15c0,0 0,-1 0,-1 0,0 1,0 1,0l11 15c1,1 1,1 0,2 0,0 0,0 0,0z"/>
   <path class="fil0" d="M42 17c0,0 -1,0 -1,0 0,-1 0,-1 0,-2l7 -14c1,-1 1,-1 2,-1 0,0 0,1 0,1l-7 15c-1,1 -1,1 -1,1z"/>
  </g>
 </g>
</svg>
