<svg xmlns="http://www.w3.org/2000/svg" width="584" height="535" viewBox="0 0 402 368" shape-rendering="geometricPrecision" text-rendering="geometricPrecision" image-rendering="optimizeQuality" fill-rule="evenodd" clip-rule="evenodd"><defs><style>.fil0,.fil1{fill:#fff}.fil0{fill-rule:nonzero}</style></defs><g id="Слой_x0020_1"><path class="fil0" d="M87 96H77L59 32c-1-3-2-7-3-11s-1-7-1-8c-1 6-3 12-4 19L33 96H23L0 0h11l14 59c2 9 3 16 4 23 1-8 3-16 5-24L49 0h11l17 59c2 7 3 14 5 23 0-6 2-14 4-23l14-59h10L87 96zm146 0h-11l-17-64c-1-3-2-7-3-11s-2-7-2-8c-1 6-2 12-4 19l-17 64h-10L146 0h10l14 59c2 9 4 16 4 23 2-8 3-16 5-24l16-58h11l16 59c2 7 4 14 5 23 1-6 2-14 4-23l14-59h11l-23 96zm145 0h-10l-18-64c0-3-1-7-2-11s-2-7-2-8c-1 6-2 12-4 19l-17 64h-10L291 0h11l14 59c2 9 3 16 4 23 1-8 3-16 5-24l16-58h10l17 59c2 7 3 14 5 23 0-6 2-14 4-23l14-59h11l-24 96z"/><path class="fil1" d="M347 302c-2 1-3 2-4 3v5l27 53-10 5-27-52c-1-2-2-3-4-3h-1c-1 0-3 0-4 1l-16 16-4-84 66 53c-7 1-16 2-23 3z"/></g></svg>