<svg xmlns="http://www.w3.org/2000/svg" width="455" height="449" viewBox="0 0 213 211" shape-rendering="geometricPrecision" text-rendering="geometricPrecision" image-rendering="optimizeQuality" fill-rule="evenodd" clip-rule="evenodd"><defs><style>.str0{stroke:#fefefe;stroke-width:5.54114}.fil0{fill:none}.fil1{fill:#fefefe}</style></defs><g id="Слой_x0020_1"><path class="fil0 str0" d="M4 109h22v95c0 2 2 4 4 4h154c2 0 3-2 3-4v-95h22M4 104L104 4c1-1 2-1 3-1s2 0 2 1l101 100c0 1 1 2 1 3 0 0-1 1-1 2h-1c1-1 1-1 1-2s0-2-1-3L109 4c-1 0-1-1-2-1s-2 1-3 1L4 104c0 1-1 2-1 3 0 0 0 1 1 1v1H3v-2c0-1 0-2 1-3z"/><g id="_1120578224"><path class="fil1" d="M53 114l8 8c7-6 10-9 19-13 21-10 44-7 63 5 4 3 6 5 9 7l8-7c-32-29-75-29-107 0z"/><path class="fil1" d="M75 136c20-16 43-16 63 1l7-8c-8-10-26-16-38-16-14 0-33 7-39 16l7 7z"/><path class="fil1" d="M89 152c7-4 8-7 18-7 9 0 11 3 18 7l7-7c-11-14-39-14-50 0l7 7zM96 169c4 14 25 8 21-6-3-12-25-8-21 6z"/></g></g></svg>