<?xml version="1.0" encoding="UTF-8"?>
<!DOCTYPE svg PUBLIC "-//W3C//DTD SVG 1.1//EN" "http://www.w3.org/Graphics/SVG/1.1/DTD/svg11.dtd">
<!-- Creator: CorelDRAW X7 -->
<svg xmlns="http://www.w3.org/2000/svg" xml:space="preserve" width="584px" height="535px" version="1.1" style="shape-rendering:geometricPrecision; text-rendering:geometricPrecision; image-rendering:optimizeQuality; fill-rule:evenodd; clip-rule:evenodd"
viewBox="0 0 402 368"
 xmlns:xlink="http://www.w3.org/1999/xlink">
 <defs>
  <style type="text/css">
   <![CDATA[
    .fil1 {fill:white}
    .fil0 {fill:white;fill-rule:nonzero}
   ]]>
  </style>
 </defs>
 <g id="Слой_x0020_1">
  <metadata id="CorelCorpID_0Corel-Layer"/>
  <path class="fil0" d="M87 96l-10 0 -18 -64c-1,-3 -2,-7 -3,-11 -1,-4 -1,-7 -1,-8 -1,6 -3,12 -4,19l-18 64 -10 0 -23 -96 11 0 14 59c2,9 3,16 4,23 1,-8 3,-16 5,-24l15 -58 11 0 17 59c2,7 3,14 5,23 0,-6 2,-14 4,-23l14 -59 10 0 -23 96zm146 0l-11 0 -17 -64c-1,-3 -2,-7 -3,-11 -1,-4 -2,-7 -2,-8 -1,6 -2,12 -4,19l-17 64 -10 0 -23 -96 10 0 14 59c2,9 4,16 4,23 2,-8 3,-16 5,-24l16 -58 11 0 16 59c2,7 4,14 5,23 1,-6 2,-14 4,-23l14 -59 11 0 -23 96zm145 0l-10 0 -18 -64c0,-3 -1,-7 -2,-11 -1,-4 -2,-7 -2,-8 -1,6 -2,12 -4,19l-17 64 -10 0 -24 -96 11 0 14 59c2,9 3,16 4,23 1,-8 3,-16 5,-24l16 -58 10 0 17 59c2,7 3,14 5,23 0,-6 2,-14 4,-23l14 -59 11 0 -24 96z"/>
  <path class="fil1" d="M347 302c-2,1 -3,2 -4,3 0,2 0,4 0,5l27 53 -10 5 -27 -52c-1,-2 -2,-3 -4,-3 0,0 -1,0 -1,0 -1,0 -3,0 -4,1 -5,5 -11,11 -16,16l-4 -84 66 53c-7,1 -16,2 -23,3z"/>
 </g>
</svg>
