<?xml version="1.0" encoding="UTF-8"?>
<!DOCTYPE svg PUBLIC "-//W3C//DTD SVG 1.1//EN" "http://www.w3.org/Graphics/SVG/1.1/DTD/svg11.dtd">
<!-- Creator: CorelDRAW X7 -->
<svg xmlns="http://www.w3.org/2000/svg" xml:space="preserve" width="455px" height="449px" version="1.1" style="shape-rendering:geometricPrecision; text-rendering:geometricPrecision; image-rendering:optimizeQuality; fill-rule:evenodd; clip-rule:evenodd"
viewBox="0 0 213 211"
 xmlns:xlink="http://www.w3.org/1999/xlink">
 <defs>
  <style type="text/css">
   <![CDATA[
    .str0 {stroke:#FEFEFE;stroke-width:5.54114}
    .fil0 {fill:none}
    .fil1 {fill:#FEFEFE}
   ]]>
  </style>
 </defs>
 <g id="Слой_x0020_1">
  <metadata id="CorelCorpID_0Corel-Layer"/>
  <path class="fil0 str0" d="M4 109l22 0 0 95c0,2 2,4 4,4l154 0c2,0 3,-2 3,-4l0 -95 22 0m-205 -5l100 -100c1,-1 2,-1 3,-1 1,0 2,0 2,1l101 100c0,1 1,2 1,3 0,0 -1,1 -1,2l-1 0 0 0c1,-1 1,-1 1,-2 0,-1 0,-2 -1,-3l-100 -100c-1,0 -1,-1 -2,-1 -1,0 -2,1 -3,1l-100 100c0,1 -1,2 -1,3 0,0 0,1 1,1 0,1 0,1 0,1l-1 0c0,-1 0,-2 0,-2 0,-1 0,-2 1,-3z"/>
  <g id="_1120578224">
   <path class="fil1" d="M53 114l8 8c7,-6 10,-9 19,-13 21,-10 44,-7 63,5 4,3 6,5 9,7l8 -7c-32,-29 -75,-29 -107,0z"/>
   <path class="fil1" d="M75 136c20,-16 43,-16 63,1l7 -8c-8,-10 -26,-16 -38,-16 -14,0 -33,7 -39,16l7 7z"/>
   <path class="fil1" d="M89 152c7,-4 8,-7 18,-7 9,0 11,3 18,7l7 -7c-11,-14 -39,-14 -50,0l7 7z"/>
   <path class="fil1" d="M96 169c4,14 25,8 21,-6 -3,-12 -25,-8 -21,6z"/>
  </g>
 </g>
</svg>
