<?xml version="1.0" standalone="no"?>
<!DOCTYPE svg PUBLIC "-//W3C//DTD SVG 1.1//EN" "http://www.w3.org/Graphics/SVG/1.1/DTD/svg11.dtd" >
<svg xmlns="http://www.w3.org/2000/svg">
<metadata></metadata>
<defs>
<font id="myriad_set_promedium" horiz-adv-x="1034" >
<font-face units-per-em="2048" ascent="1638" descent="-410" />
<missing-glyph horiz-adv-x="489" />
<glyph horiz-adv-x="0" />
<glyph unicode="&#xd;" horiz-adv-x="489" />
<glyph horiz-adv-x="0" />
<glyph horiz-adv-x="0" />
<glyph unicode=" "  horiz-adv-x="489" />
<glyph unicode="&#x09;" horiz-adv-x="489" />
<glyph unicode="&#xa0;" horiz-adv-x="489" />
<glyph unicode="!" horiz-adv-x="466" d="M332 1380l-29 -985h-139l-29 985h197zM352 102q0 -55 -32.5 -88.5t-88.5 -33.5q-51 0 -83.5 35.5t-32.5 86.5q0 55 32.5 92t85.5 37q55 0 87 -37t32 -92z" />
<glyph unicode="&#x22;" horiz-adv-x="688" d="M584 1415l-33 -489h-109l-34 489h176zM279 1415l-33 -489h-109l-33 489h175z" />
<glyph unicode="#" horiz-adv-x="1003" d="M930 819h-182l-39 -297h174v-119h-191l-53 -403h-123l53 403h-209l-51 -403h-123l54 401h-166v121h184l39 297h-174v119h190l54 393h118l-51 -393h211l51 393h121l-51 -393h164v-119zM627 819h-209l-39 -297h209z" />
<glyph unicode="$" d="M885 385q0 -127 -84 -224.5t-234 -121.5v-211h-129v203q-184 4 -307 88l49 137q131 -88 289 -88q106 0 173 57.5t67 145.5q0 152 -228 243q-166 68 -241 142q-92 88 -93 213q0 127 83 217t223 112v205h127v-198q150 -4 260 -70l-49 -135q-123 70 -252 69q-109 0 -166 -57 q-49 -47 -49 -119q0 -78 59 -129q51 -47 190 -106q160 -68 236 -154t76 -219z" />
<glyph unicode="%" horiz-adv-x="1601" d="M1538 406q0 -170 -70 -285q-86 -133 -243 -133q-152 0 -236 127q-72 111 -71 270q0 168 73 283q88 133 246 133q156 0 236 -125q65 -106 65 -270zM1245 1356l-778 -1379h-115l778 1379h115zM682 956q0 -168 -70 -282q-86 -137 -243 -137q-152 0 -236 129q-72 111 -72 272 q0 166 74 281q88 135 246 135q156 0 235 -127q66 -107 66 -271zM1401 395q0 299 -172 299q-92 0 -135 -114q-33 -84 -33 -193q0 -106 33 -186q45 -109 137 -109q170 0 170 303zM545 948q0 297 -172 297q-92 0 -135 -115q-33 -82 -33 -192q0 -106 33 -186q45 -106 137 -107 q170 0 170 303z" />
<glyph unicode="&#x26;" horiz-adv-x="1222" d="M1217 0h-211q-27 27 -127 135q-168 -156 -396 -155q-193 0 -309 114q-111 109 -111 271q0 252 265 403l2 6q-115 145 -115 289q0 137 88 233q98 106 258 107q129 0 215 -80t86 -213q0 -215 -297 -369l-2 -6q215 -252 332 -385q90 139 129 404h162q-55 -344 -195 -510z M709 1102q0 76 -43 127t-117 51q-80 0 -124 -59.5t-44 -141.5q0 -117 102 -248q226 130 226 271zM791 238q-240 266 -381 434q-176 -113 -177 -281q0 -121 79 -199.5t202 -78.5q166 0 277 125z" />
<glyph unicode="'" horiz-adv-x="382" d="M279 1415l-33 -489h-109l-33 489h175z" />
<glyph unicode="(" horiz-adv-x="577" d="M535 -244h-138q-266 346 -266 828q0 485 266 837h138q-254 -346 -254 -837q0 -470 254 -828z" />
<glyph unicode=")" horiz-adv-x="577" d="M446 588q0 -479 -266 -832h-139q254 354 254 834q0 477 -254 831h139q266 -346 266 -833z" />
<glyph unicode="*" horiz-adv-x="843" d="M784 977l-307 37v-6l195 -246l-127 -72l-125 285h-4l-131 -287l-117 74l194 248v6l-301 -39v137l297 -39v6l-188 248l123 72l127 -283h4l123 285l123 -70l-193 -258l307 39v-137z" />
<glyph unicode="+" horiz-adv-x="1220" d="M1139 485h-463v-485h-131v485h-463v123h463v482h131v-482h463v-123z" />
<glyph unicode="," horiz-adv-x="421" d="M354 256q-88 -315 -194 -494l-125 -14q82 227 121 488z" />
<glyph unicode="-" horiz-adv-x="624" d="M563 487h-502v131h502v-131z" />
<glyph unicode="." horiz-adv-x="421" d="M348 106q0 -57 -33.5 -91.5t-89.5 -34.5q-53 0 -86 36.5t-33 89.5t34 91.5t87 38.5q55 0 88 -37.5t33 -92.5z" />
<glyph unicode="/" horiz-adv-x="694" d="M700 1403l-565 -1485h-135l561 1485h139z" />
<glyph unicode="0" d="M961 678q0 -283 -87 -463q-117 -236 -368 -235q-233 0 -346 237q-88 182 -88 445q0 166 32 296q45 172 144 277q115 119 280 119q238 0 351 -234q82 -174 82 -442zM780 670q0 543 -264 542q-152 0 -221 -215q-45 -145 -45 -338t45 -331q68 -211 219 -211q266 0 266 553z " />
<glyph unicode="1" d="M649 0h-172v1165h-4l-231 -125l-35 136l291 155h151v-1331z" />
<glyph unicode="2" d="M926 0h-836v109l139 139q272 270 365 393q121 164 121 305q0 260 -258 260q-139 0 -277 -110l-57 125q158 133 369 133q199 0 307 -121q94 -106 94 -264q0 -172 -123 -351q-94 -139 -326 -364l-104 -100v-4h586v-150z" />
<glyph unicode="3" d="M901 377q0 -168 -121 -279q-133 -119 -358 -118q-207 0 -338 88l49 135q129 -80 287 -80q154 0 233 86q66 70 64 172q0 131 -105 203q-92 63 -233 63h-98v135h96q113 0 194 54q98 63 99 172q0 88 -54 141q-61 59 -176 59q-139 0 -258 -86l-49 129q137 102 342 103 q182 0 285 -99q92 -86 92 -219q0 -223 -242 -313v-4q125 -25 205 -113q86 -94 86 -229z" />
<glyph unicode="4" d="M989 365h-182v-365h-170v365h-606v116l583 850h193v-829h182v-137zM645 1155l-8 2q-33 -72 -111 -203l-315 -452h426v442q0 102 8 211z" />
<glyph unicode="5" d="M897 432q0 -197 -137 -324.5t-350 -127.5q-201 0 -326 77l45 138q123 -74 279 -74q129 0 220 81t89 212q-2 297 -377 297q-90 0 -178 -13l86 633h624v-149h-497l-51 -338q51 6 104 6q162 0 285 -74q184 -111 184 -344z" />
<glyph unicode="6" d="M967 446q0 -193 -115 -325q-125 -141 -322 -141q-209 0 -334.5 153.5t-125.5 409.5q0 377 221 600q160 164 420 198q76 10 127 11l2 -146q-66 0 -135 -10q-197 -33 -320 -172q-109 -125 -133 -301h6q113 152 313 151q176 0 286 -117.5t110 -310.5zM786 434 q0 143 -72.5 224t-195.5 81q-78 0 -147.5 -44t-106.5 -117q-18 -37 -18 -78q2 -164 67 -267q78 -119 219 -118q119 0 189 96q65 88 65 223z" />
<glyph unicode="7" d="M940 1214l-569 -1214h-185l568 1182h-639v149h825v-117z" />
<glyph unicode="8" d="M958 365q0 -178 -137 -287q-125 -98 -309 -98q-174 0 -299 88q-137 100 -137 268q0 244 260 360l-2 6q-209 98 -209 299q0 162 125 261q115 92 280 92q158 0 265 -84q117 -90 116 -244q0 -207 -217 -311v-6q264 -106 264 -344zM743 1010q0 98 -59 156.5t-160 58.5 q-98 0 -161.5 -57.5t-63.5 -153.5q0 -178 248 -248q196 70 196 244zM780 346q0 207 -286 291q-236 -70 -236 -281q0 -111 75 -179t187 -68q111 0 185.5 63t74.5 174z" />
<glyph unicode="9" d="M963 793q0 -399 -228 -623q-150 -150 -381 -178q-102 -12 -161 -10v145q250 -23 415 133q139 131 174 356h-6q-117 -141 -309 -141q-172 0 -278.5 117t-106.5 291q0 193 126 332t320 139q201 0 318 -152.5t117 -408.5zM782 815q0 168 -57 272q-70 129 -211 130 q-119 0 -188 -99q-66 -90 -66 -225q0 -127 68.5 -205t181.5 -78q176 0 256 140q16 26 16 65z" />
<glyph unicode=":" horiz-adv-x="421" d="M346 829q0 -55 -32.5 -91t-88.5 -36q-53 0 -86 37t-33 90q0 55 34 92t87 37q55 0 87 -37t32 -92zM344 104q0 -55 -32.5 -89.5t-88.5 -34.5q-53 0 -86 35.5t-33 88.5q0 55 34 92t87 37q55 0 87 -37t32 -92z" />
<glyph unicode=";" horiz-adv-x="421" d="M362 829q0 -55 -33.5 -91t-88.5 -36q-51 0 -84 37t-33 90q0 55 33.5 92t87.5 37q53 0 85.5 -37t32.5 -92zM354 256q-88 -315 -194 -494l-125 -14q82 227 121 488z" />
<glyph unicode="&#x3c;" horiz-adv-x="1220" d="M1085 0l-950 489v111l950 490v-142l-800 -401v-4l800 -402v-141z" />
<glyph unicode="=" horiz-adv-x="1220" d="M1139 690h-1057v123h1057v-123zM1139 289h-1057v123h1057v-123z" />
<glyph unicode="&#x3e;" horiz-adv-x="1220" d="M1085 487l-950 -487v141l807 402v4l-807 401v142l950 -488v-115z" />
<glyph unicode="?" horiz-adv-x="817" d="M729 1104q0 -94 -51 -186q-35 -61 -125 -170q-121 -145 -113 -306l2 -51h-157l-6 51q-18 182 124 356.5t142 282.5q0 176 -193 176q-119 0 -200 -61l-50 129q113 80 289 80q164 0 256 -92q82 -82 82 -209zM479 104q0 -55 -33.5 -89.5t-89.5 -34.5q-51 0 -83.5 35.5 t-32.5 88.5t33.5 90t86.5 37t86 -36t33 -91z" />
<glyph unicode="@" horiz-adv-x="1488" d="M1411 819q0 -227 -108 -364q-100 -131 -252 -131q-66 0 -107 43q-47 47 -43 135h-6q-106 -178 -287 -178q-90 0 -153.5 69.5t-63.5 186.5q0 195 137.5 341t345.5 146q125 0 216 -41l-72 -375q-12 -68 -12 -114q0 -113 73 -115q84 -2 148 100q72 111 71 281 q0 227 -129 367.5t-358 140.5q-256 0 -428 -187q-180 -195 -180 -499q0 -252 144.5 -402.5t373.5 -150.5q176 0 305 73l33 -88q-154 -80 -361 -80q-258 0 -430 168q-182 180 -182 469q0 328 203 553q211 236 538 236q262 0 423 -165t161 -419zM948 944q-43 16 -98 17 q-133 0 -228.5 -112t-95.5 -263q0 -154 131 -154q82 0 158 92q70 84 88 185z" />
<glyph unicode="A" horiz-adv-x="1228" d="M1182 0h-189l-143 432h-477l-140 -432h-182l459 1380h213zM815 571l-133 394q-23 72 -70 256h-4q-20 -84 -67 -254l-133 -396h407z" />
<glyph unicode="B" horiz-adv-x="1093" d="M1012 393q0 -166 -117 -276q-137 -127 -469 -127q-141 0 -272 14v1358q133 29 319 29q248 0 373 -101q115 -90 115 -243q0 -100 -62.5 -182.5t-171.5 -119.5v-6q117 -29 193 -108q92 -97 92 -238zM780 1030q0 225 -297 225q-100 0 -153 -14v-444h157q133 0 213 65.5 t80 167.5zM825 395q0 133 -104 205q-94 63 -248 64h-143v-529q45 -8 145 -8q154 0 244 59q106 70 106 209z" />
<glyph unicode="C" horiz-adv-x="1159" d="M1096 1341l-43 -143q-115 55 -269 55q-240 0 -378 -147q-145 -152 -146 -422q0 -258 137.5 -406.5t378.5 -148.5q168 0 283 55l35 -141q-127 -61 -355 -61q-295 0 -475 176q-190 188 -190 520q0 328 195.5 525.5t508.5 197.5q207 -1 318 -60z" />
<glyph unicode="D" horiz-adv-x="1333" d="M1260 723q0 -344 -197 -538.5t-596 -194.5q-184 0 -313 14v1358q174 29 366 29q362 0 545 -166q195 -180 195 -502zM1073 717q0 254 -133 391q-139 141 -410 141q-115 0 -200 -16v-1094q49 -8 172 -8q276 0 423.5 151.5t147.5 434.5z" />
<glyph unicode="E" horiz-adv-x="987" d="M915 0h-761v1380h731v-147h-555v-438h524v-148h-524v-500h585v-147z" />
<glyph unicode="F" horiz-adv-x="976" d="M883 1233h-553v-461h510v-147h-510v-625h-176v1380h729v-147z" />
<glyph unicode="G" horiz-adv-x="1294" d="M1180 59q-195 -72 -412 -71q-319 0 -504 178q-190 184 -190 514q0 317 199.5 516t531.5 199q207 0 336 -62l-45 -145q-125 57 -295 57q-246 0 -393.5 -147.5t-147.5 -407.5q0 -262 140.5 -409.5t377.5 -147.5q158 0 230 35v414h-275v143h447v-666z" />
<glyph unicode="H" horiz-adv-x="1310" d="M1157 0h-178v647h-649v-647h-176v1380h176v-579h649v579h178v-1380z" />
<glyph unicode="I" horiz-adv-x="485" d="M330 0h-176v1380h176v-1380z" />
<glyph unicode="J" horiz-adv-x="743" d="M604 453q0 -473 -411 -473q-109 0 -185 28l25 146q68 -25 147 -25q125 0 180 68q66 80 66 270v913h178v-927z" />
<glyph unicode="K" horiz-adv-x="1091" d="M1110 0h-209l-442 676l-129 -150v-526h-176v1380h176v-665h6q53 82 106 149l412 516h217l-487 -587z" />
<glyph unicode="L" horiz-adv-x="948" d="M907 0h-753v1380h176v-1230h577v-150z" />
<glyph unicode="M" horiz-adv-x="1617" d="M1501 0h-172l-33 606q-25 420 -22 592h-6q-70 -248 -168 -522l-240 -668h-133l-219 656q-100 297 -156 534h-4q-8 -299 -26 -606l-37 -592h-168l96 1380h223l230 -665q80 -229 137 -465h6q57 229 143 465l240 665h225z" />
<glyph unicode="N" horiz-adv-x="1320" d="M1167 0h-178l-426 696q-164 268 -252 463l-6 -2q14 -217 14 -573v-584h-165v1380h192l430 -694q141 -229 242 -450h4q-20 227 -21 571v573h166v-1380z" />
<glyph unicode="O" horiz-adv-x="1376" d="M1303 705q0 -309 -154 -508q-170 -217 -471 -217q-285 0 -451 210q-154 195 -153 490q0 301 157 502q172 221 467 221q287 0 453 -211q152 -192 152 -487zM1114 696q0 219 -100 377q-119 184 -326 184q-213 0 -330 -188q-100 -158 -100 -385q0 -219 102 -377 q119 -184 326 -184q213 0 330 188q98 160 98 385z" />
<glyph unicode="P" horiz-adv-x="1071" d="M991 987q0 -182 -106 -293q-143 -152 -416 -151q-92 0 -139 12v-555h-176v1364q152 27 335 27q254 0 381 -113q121 -109 121 -291zM813 979q0 131 -86 201.5t-233 70.5q-100 0 -164 -14v-539q51 -14 141 -14q162 0 252 77t90 218z" />
<glyph unicode="Q" horiz-adv-x="1376" d="M1315 -51l-53 -148q-246 63 -514 158q-55 20 -82 21q-254 10 -416 184q-176 190 -176 514q0 328 175 526.5t451 198.5q272 0 437.5 -194.5t165.5 -503.5q0 -258 -107 -435q-100 -164 -276 -227v-8q215 -53 395 -86zM1116 696q0 219 -100 377q-115 184 -322 184 q-215 0 -334 -188q-100 -160 -100 -387q0 -219 102 -377q119 -182 326 -182q213 0 330 188q98 160 98 385z" />
<glyph unicode="R" horiz-adv-x="1085" d="M1038 0h-184q-31 57 -90 332q-31 143 -92.5 204.5t-179.5 61.5h-162v-598h-176v1362q143 29 333 29q270 0 396 -113q106 -96 106 -262q0 -131 -74 -225q-70 -86 -184 -127v-7q150 -51 203 -280q71 -316 104 -377zM811 995q0 258 -311 258q-113 0 -170 -16v-504h174 q141 0 224 71.5t83 190.5z" />
<glyph unicode="S" horiz-adv-x="991" d="M905 377q0 -170 -119 -279q-129 -117 -358 -116q-215 0 -344 86l45 147q139 -88 311 -88q133 0 209 64.5t76 170.5q0 96 -59.5 160t-196.5 115q-358 135 -358 391q0 162 122.5 267.5t319.5 105.5q182 0 297 -66l-49 -145q-106 66 -254 65q-127 0 -199 -67 q-57 -57 -57 -139q0 -92 63 -154q59 -53 205 -113q178 -72 262 -166t84 -239z" />
<glyph unicode="T" horiz-adv-x="997" d="M999 1231h-411v-1231h-178v1231h-410v149h999v-149z" />
<glyph unicode="U" horiz-adv-x="1300" d="M1147 569q0 -301 -146 -452q-131 -137 -364 -137q-223 0 -346 131q-139 147 -139 450v819h178v-825q0 -219 90 -330q80 -102 223 -102q328 0 328 432v825h176v-811z" />
<glyph unicode="V" horiz-adv-x="1124" d="M1128 1380l-481 -1380h-194l-445 1380h193l209 -678q104 -340 145 -516h4q43 184 154 514l227 680h188z" />
<glyph unicode="W" horiz-adv-x="1705" d="M1688 1380l-383 -1380h-185l-170 715q-68 283 -90 452h-4q-25 -158 -104 -452l-191 -715h-186l-344 1380h188l160 -696q61 -262 100 -479h4q25 150 111 481l182 694h180l166 -696q70 -293 97 -475h4q37 205 106 477l178 694h181z" />
<glyph unicode="X" horiz-adv-x="1144" d="M1096 0h-205l-172 307q-57 94 -156 271h-4q-4 -8 -143 -273l-164 -305h-203l414 700l-397 680h202l181 -323q84 -152 124 -234h5q43 92 122 234l183 323h202l-411 -671z" />
<glyph unicode="Y" horiz-adv-x="1087" d="M1085 1380l-452 -792v-588h-178v586l-428 794h200l189 -379q86 -172 135 -286h4q45 111 137 289l193 376h200z" />
<glyph unicode="Z" horiz-adv-x="1105" d="M1042 0h-983v104l748 1129h-684v147h911v-108l-741 -1125h749v-147z" />
<glyph unicode="[" horiz-adv-x="577" d="M537 -229h-371v1634h371v-113h-232v-1409h232v-112z" />
<glyph unicode="\" horiz-adv-x="698" d="M700 -82h-139l-557 1485h137z" />
<glyph unicode="]" horiz-adv-x="577" d="M412 -229h-371v112h231v1409h-231v113h371v-1634z" />
<glyph unicode="^" horiz-adv-x="1220" d="M1096 387h-142l-342 795h-4l-342 -795h-141l422 944h127z" />
<glyph unicode="_" horiz-adv-x="1024" d="M1024 -256h-1024v102h1024v-102z" />
<glyph unicode="`" horiz-adv-x="614" d="M422 1112h-127l-248 293h197z" />
<glyph unicode="a" horiz-adv-x="970" d="M848 0h-162l-16 123h-4q-102 -143 -297 -143q-139 0 -222 86q-76 80 -75 196q0 180 151.5 275.5t431.5 93.5v20q0 229 -221 230q-143 0 -252 -72l-41 119q131 84 322 84q369 0 368 -402v-374q1 -146 17 -236zM657 332v174q-408 8 -407 -223q0 -84 47 -128t119 -44 q88 0 153 51q57 45 80 112q8 27 8 58z" />
<glyph unicode="b" horiz-adv-x="1142" d="M1065 508q0 -250 -137 -397q-121 -131 -299 -131q-217 0 -322 180h-6l-8 -160h-154q8 119 8 254v1198h177v-618h4q100 178 329 178q180 0 294 -139.5t114 -364.5zM887 502q0 158 -74 260q-80 109 -215 108q-90 0 -164 -59t-100 -158q-10 -39 -10 -75v-185 q0 -113 78.5 -192.5t191.5 -79.5q137 0 215 104.5t78 276.5z" />
<glyph unicode="c" horiz-adv-x="897" d="M842 961l-39 -138q-86 47 -203 47q-162 0 -254 -112q-88 -102 -88 -264q0 -168 94 -269.5t244 -101.5q106 0 213 47l29 -135q-113 -53 -275 -53q-221 0 -353 137t-132 366q0 231 143.5 379t378.5 148q148 0 242 -51z" />
<glyph unicode="d" horiz-adv-x="1132" d="M993 0h-159l-9 168h-4q-96 -188 -327 -188q-180 0 -298 139t-118 362q0 242 129 391q123 139 305 140q209 0 291 -148h4v588h178v-1198q0 -135 8 -254zM807 412v178q0 45 -6 76q-20 88 -89 147t-165 59q-133 0 -212 -107.5t-79 -272.5q0 -160 74 -261q78 -111 213 -110 q117 0 192 90q72 84 72 201z" />
<glyph unicode="e" horiz-adv-x="1007" d="M934 553q0 -53 -6 -88h-680q4 -174 102 -264q86 -80 232 -80q147 0 266 49l31 -127q-133 -59 -324 -59q-221 0 -349 135t-128 362q0 231 124 382t333 151q211 0 317 -162q82 -125 82 -299zM762 594q2 113 -47 190q-63 100 -195 101q-123 0 -196 -99q-59 -80 -74 -192h512 z" />
<glyph unicode="f" horiz-adv-x="589" d="M670 1446l-25 -137q-51 20 -115 20q-188 0 -188 -285v-53h236v-135h-234v-856h-178v856h-137v135h137v47q0 233 113 344q94 92 237 93q88 0 154 -29z" />
<glyph unicode="g" horiz-adv-x="1124" d="M985 991q-8 -121 -8 -274v-574q0 -322 -139 -450q-127 -117 -355 -117q-203 0 -321 78l43 139q125 -78 284 -78q311 0 312 342v111h-4q-94 -164 -305 -164q-180 0 -297 138.5t-117 344.5q0 242 135 390q125 135 303 135q211 0 299 -168h4l8 147h158zM799 418v186 q0 49 -8 80q-59 188 -246 188q-129 0 -209 -102t-80 -272q0 -156 74 -252q78 -106 213 -107q82 0 148.5 49.5t94.5 135.5q13 41 13 94z" />
<glyph unicode="h" horiz-adv-x="1116" d="M975 0h-178v575q0 289 -224 289q-82 0 -146.5 -50t-90.5 -128q-10 -33 -10 -84v-602h-179v1452h179v-612h4q47 80 130 126t177 46q129 0 219 -82q119 -111 119 -336v-594z" />
<glyph unicode="i" horiz-adv-x="473" d="M350 1288q0 -51 -32.5 -82.5t-84.5 -31.5q-49 0 -80.5 32.5t-31.5 81.5t32.5 82t82.5 33q51 0 82.5 -32t31.5 -83zM326 0h-179v991h179v-991z" />
<glyph unicode="j" horiz-adv-x="491" d="M373 1288q0 -51 -33 -82.5t-84 -31.5q-49 0 -81 32.5t-32 81.5t34 82t83 33t81 -33t32 -82zM348 86q0 -285 -119 -403q-106 -111 -299 -113l-18 141q131 10 190 76q68 78 68 367v837h178v-905z" />
<glyph unicode="k" horiz-adv-x="944" d="M963 0h-218l-331 475l-90 -102v-373h-177v1452h177v-915h4q43 61 84 112l286 342h213l-374 -409z" />
<glyph unicode="l" horiz-adv-x="473" d="M326 0h-179v1452h179v-1452z" />
<glyph unicode="m" horiz-adv-x="1679" d="M1538 0h-174v563q0 303 -211 303q-96 0 -159.5 -75.5t-63.5 -176.5v-614h-174v598q0 121 -52.5 194.5t-148.5 73.5q-100 0 -170 -86q-63 -78 -63 -180v-600h-175v723q0 123 -8 268h156l8 -157h6q104 178 305 178q98 0 171 -53.5t104 -141.5h4q45 78 113 127q90 68 211 68 q125 0 210 -84q111 -111 111 -340v-588z" />
<glyph unicode="n" horiz-adv-x="1116" d="M975 0h-178v575q0 291 -224 291q-106 0 -176.5 -80.5t-70.5 -187.5v-598h-179v723q0 123 -8 268h158l10 -160h4q41 76 119 125q90 55 203 56q131 0 221 -82q121 -111 121 -334v-596z" />
<glyph unicode="o" horiz-adv-x="1101" d="M1024 504q0 -227 -125 -373q-133 -152 -356 -151q-215 0 -344 147q-121 143 -121 360q0 227 125 373q133 152 356 152q215 0 344 -148q121 -141 121 -360zM842 498q0 150 -70 256q-80 125 -221 125q-145 0 -225 -125q-70 -106 -70 -260q0 -147 72 -256q80 -125 221 -125 q139 0 221 127q72 111 72 258z" />
<glyph unicode="p" horiz-adv-x="1142" d="M1065 510q0 -254 -135 -399q-121 -131 -305 -131q-205 0 -297 151h-4v-534h-177v1073q0 160 -8 321h160l8 -166h4q113 186 342 187q180 0 296 -139.5t116 -362.5zM885 502q0 156 -72 258q-80 111 -213 110q-92 0 -166 -61t-98 -158q-12 -47 -12 -73v-177 q0 -119 75.5 -200.5t194.5 -81.5q137 0 214 105.5t77 277.5z" />
<glyph unicode="q" horiz-adv-x="1130" d="M993 991q-8 -150 -8 -274v-1120h-178v553h-4q-94 -170 -316 -170q-174 0 -291.5 138t-117.5 361q0 258 141 406q123 127 297 127q211 0 297 -168h4l6 147h170zM807 401v191q0 115 -71.5 196.5t-186.5 81.5q-135 0 -213 -105.5t-78 -275.5q0 -158 70 -258 q76 -111 215 -110q86 0 153.5 51t96.5 143q14 43 14 86z" />
<glyph unicode="r" horiz-adv-x="659" d="M631 840q-27 4 -62 4q-121 0 -186 -101q-59 -88 -59 -213v-530h-177v686q0 160 -8 305h158l8 -192h6q33 98 108 155.5t163 57.5q29 0 49 -4v-168z" />
<glyph unicode="s" horiz-adv-x="796" d="M717 276q0 -133 -98.5 -213.5t-268.5 -80.5q-158 0 -272 65l43 135q111 -70 233 -69q190 0 191 147q0 63 -41 104.5t-139 77.5q-260 98 -261 281q0 123 93.5 206t244.5 83q141 0 240 -60l-45 -131q-90 57 -199 58q-76 0 -119 -38t-43 -98q0 -57 46 -94q37 -35 139 -74 q256 -100 256 -299z" />
<glyph unicode="t" horiz-adv-x="667" d="M616 856h-254v-539q0 -190 134 -190q59 0 102 12l8 -135q-61 -23 -157 -22q-125 0 -194 74.5t-69 254.5v545h-151v135h151v183l176 53v-236h254v-135z" />
<glyph unicode="u" horiz-adv-x="1105" d="M969 0h-158l-10 158h-6q-102 -178 -320 -178q-139 0 -225 86q-109 111 -109 342v583h178v-551q0 -315 216 -315q82 0 149 53q57 45 82 111q16 41 16 92v610h179v-721q0 -133 8 -270z" />
<glyph unicode="v" horiz-adv-x="966" d="M946 991l-381 -991h-170l-368 991h190l191 -557q51 -150 77 -254h7q23 88 79 254l189 557h186z" />
<glyph unicode="w" horiz-adv-x="1484" d="M1454 991l-315 -991h-162l-148 473q-57 180 -86 326h-4q-33 -158 -90 -328l-155 -471h-162l-295 991h182l129 -502q45 -172 74 -317h4q27 123 88 315l158 504h149l152 -495q51 -168 86 -324h4q25 139 76 324l139 495h176z" />
<glyph unicode="x" horiz-adv-x="931" d="M907 0h-202l-142 223q-43 66 -104 172h-4q-29 -55 -103 -172l-139 -223h-197l344 506l-327 485h198l138 -213q43 -63 98 -162h6q41 76 96 164l136 211h194l-332 -479z" />
<glyph unicode="y" horiz-adv-x="948" d="M932 991l-262 -702q-100 -264 -168 -393q-78 -147 -166 -228q-106 -96 -217 -117l-47 150q84 27 157 90q92 78 146 199q14 29 14 41q0 14 -12 47l-357 913h193l211 -585q31 -82 61 -201h7q18 66 61 205l190 581h189z" />
<glyph unicode="z" horiz-adv-x="860" d="M825 0h-788v104l438 584q37 47 127 156v4h-526v143h741v-112l-434 -578q-59 -80 -125 -154v-4h567v-143z" />
<glyph unicode="{" horiz-adv-x="577" d="M526 -227h-43q-293 0 -293 276q0 57 15.5 168t15.5 168q0 152 -164 152v104q164 0 164 152q0 59 -15.5 172.5t-15.5 171.5q0 268 295 268h41v-113h-37q-160 0 -159 -176q0 -51 14 -151.5t14 -149.5q2 -184 -147 -223v-4q150 -39 147 -226q0 -49 -14 -150t-14 -153 q0 -174 159 -174h37v-112z" />
<glyph unicode="|" horiz-adv-x="483" d="M309 -512h-135v2048h135v-2048z" />
<glyph unicode="}" horiz-adv-x="577" d="M520 537q-164 0 -164 -152q0 -57 15.5 -168t15.5 -168q0 -276 -295 -276h-41v112h37q160 0 160 174q0 51 -14.5 152.5t-16.5 150.5q0 186 148 226v4q-147 39 -148 223q2 49 16.5 149.5t14.5 151.5q0 176 -160 176h-37v113h41q295 0 295 -268q0 -57 -15.5 -172t-15.5 -172 q0 -152 164 -152v-104z" />
<glyph unicode="~" horiz-adv-x="1220" d="M1118 733q8 -160 -65 -239q-61 -70 -168 -70q-104 0 -293 90t-246 90q-117 0 -121 -172h-123q-4 147 65 227t179 80q94 0 289 -92q180 -86 252 -86q109 0 110 172h121z" />
<glyph unicode="&#xa2;" d="M887 236q-88 -51 -221 -58v-205h-127v205q-176 20 -287 141q-117 125 -117 349q0 197 111 336q109 137 293 167v205h127v-200q121 0 217 -50l-39 -137q-84 51 -209 51q-145 0 -234 -106q-86 -109 -86 -260q0 -84 23.5 -149.5t64.5 -112.5t99.5 -72t126.5 -25 q119 0 227 50z" />
<glyph unicode="&#xa3;" d="M948 0h-837v102q102 51 166.5 148.5t64.5 210.5q0 76 -10 143h-209v129h188q-23 135 -22 221q0 180 108.5 290t278.5 110q137 0 219 -51l-39 -136q-72 41 -180 41q-219 0 -219 -252q0 -98 24 -223h289v-129h-272q12 -150 -9 -231q-33 -127 -141 -221v-5h600v-147z" />
<glyph unicode="&#xa5;" d="M999 1331l-358 -620h262v-101h-315v-149h315v-101h-315v-360h-168v360h-314v101h314v149h-314v101h265l-338 620h190l207 -420q18 -35 38.5 -82t43.5 -104h6q39 117 80 190l217 416h184z" />
<glyph unicode="&#xa8;" horiz-adv-x="614" d="M592 1241q0 -43 -28.5 -72.5t-71.5 -29.5t-71 30.5t-28 71.5q0 43 29 72.5t72 29.5t70.5 -29.5t27.5 -72.5zM221 1241q0 -43 -28.5 -72.5t-71.5 -29.5t-70.5 30.5t-27.5 71.5q0 43 29.5 72.5t70.5 29.5q43 0 70.5 -29.5t27.5 -72.5z" />
<glyph unicode="&#xa9;" horiz-adv-x="1386" d="M1313 696q0 -262 -177.5 -448.5t-439.5 -186.5t-442 185.5t-180 449.5q0 262 181 446.5t443 184.5q260 0 437.5 -185.5t177.5 -445.5zM1212 696q0 225 -146 386t-370 161q-225 0 -371.5 -162.5t-146.5 -390.5q0 -225 148.5 -385t371.5 -160t371 166q143 158 143 385z M981 377q-94 -63 -252 -64q-172 0 -273.5 105.5t-101.5 265.5q0 170 119 279q113 102 272 102q164 0 226 -55l-25 -80q-84 47 -201 47q-137 0 -210.5 -79t-73.5 -208q0 -125 75.5 -207t211.5 -82q129 0 208 54z" />
<glyph unicode="&#xab;" horiz-adv-x="849" d="M803 141h-146l-266 375l266 375h146l-271 -375zM471 141h-145l-269 375l269 375h143l-268 -375z" />
<glyph unicode="&#xad;" horiz-adv-x="624" d="M563 487h-502v131h502v-131z" />
<glyph unicode="&#xae;" horiz-adv-x="1044" d="M979 940q0 -195 -131 -329t-324 -134t-325.5 135.5t-132.5 327.5q0 190 134 324.5t326 134.5q190 0 321.5 -134.5t131.5 -324.5zM895 938q0 160 -106.5 274.5t-264.5 114.5t-263 -115.5t-105 -273.5q0 -160 104 -272q109 -119 266 -119q158 0 265 119q104 112 104 272z M727 672h-86q-18 23 -37 131q-14 90 -110 90h-56v-221h-82v512q92 14 146 14q109 0 158 -38t49 -109q0 -94 -101 -123v-4q70 -14 86 -125q15 -94 33 -127zM623 1042q0 90 -125 91q-35 0 -60 -3v-176h58q127 0 127 88z" />
<glyph unicode="&#xb4;" horiz-adv-x="614" d="M582 1405l-248 -293h-125l178 293h195z" />
<glyph unicode="&#xb8;" horiz-adv-x="614" d="M465 -242q0 -166 -211 -166q-80 0 -139 35l30 88q51 -31 111 -30q47 0 66.5 16t19.5 49q0 70 -158 86l95 170h110l-65 -106q57 -8 99 -47.5t42 -94.5z" />
<glyph unicode="&#xbb;" horiz-adv-x="849" d="M791 516l-269 -375h-143l270 375l-270 375h143zM459 516l-269 -375h-143l270 375l-270 375h143z" />
<glyph unicode="&#xc6;" horiz-adv-x="1581" d="M1518 147v-147h-650l-59 485h-412l-215 -485h-182l616 1380h846v-147h-571l51 -442h504v-148h-483l59 -496h496zM791 629l-43 397q-10 76 -25 227h-8q-49 -133 -86 -221l-174 -403h336z" />
<glyph unicode="&#xe6;" horiz-adv-x="1554" d="M1481 561q0 -49 -6 -82h-650v-16q0 -166 85 -255t227 -89q147 0 262 55l33 -127q-131 -66 -320 -65q-129 0 -228.5 55t-140.5 160h-6q-96 -215 -360 -215q-143 0 -227 84q-78 82 -78 196q0 174 152.5 266.5t432.5 92.5v41q0 74 -39 131q-57 88 -186 88q-143 0 -250 -72 l-41 117q137 88 303 88q248 0 316 -207h4q104 207 338 207q199 0 301 -164q78 -127 78 -289zM1309 606v23q0 88 -45 157q-63 100 -181 101q-119 0 -192 -96q-63 -84 -66 -185h484zM662 500h-31q-383 0 -383 -224q0 -76 48 -119.5t120 -43.5q53 0 98 17t78 49t51.5 76 t18.5 95v150z" />
<glyph unicode="&#x2c6;" horiz-adv-x="614" d="M557 1112h-133l-117 193h-4l-117 -193h-129l189 293h119z" />
<glyph unicode="&#x2da;" horiz-adv-x="819" d="M604 1288q0 -41 -15.5 -75.5t-42 -61.5t-62 -42t-76.5 -15t-76 15t-61.5 42t-42 61.5t-15.5 75.5t15.5 77t42 62.5t61.5 42t76 15.5q82 0 139 -57.5t57 -139.5zM512 1288q0 43 -30.5 74t-73.5 31q-41 0 -72 -31t-31 -74q0 -41 31 -71.5t72 -30.5q43 0 73.5 30.5 t30.5 71.5z" />
<glyph unicode="&#x2dc;" horiz-adv-x="614" d="M555 1356v-8q0 -186 -135 -187q-49 0 -125 43q-66 35 -90 35q-47 0 -53 -90h-93q0 88 34 144.5t100 56.5q45 0 129 -45q66 -35 92 -35q47 0 53 86h88z" />
<glyph unicode="&#x300;" horiz-adv-x="614" d="M422 1112h-127l-248 293h197z" />
<glyph unicode="&#x304;" horiz-adv-x="614" d="M537 1196h-457v109h457v-109z" />
<glyph unicode="&#x306;" horiz-adv-x="614" d="M553 1391q-2 -111 -67.5 -176.5t-178.5 -65.5q-125 0 -188 76q-53 63 -58 166h103q23 -139 141 -140q135 0 146 140h102z" />
<glyph unicode="&#x308;" horiz-adv-x="614" d="M592 1241q0 -43 -28.5 -72.5t-71.5 -29.5t-71 30.5t-28 71.5q0 43 29 72.5t72 29.5t70.5 -29.5t27.5 -72.5zM221 1241q0 -43 -28.5 -72.5t-71.5 -29.5t-70.5 30.5t-27.5 71.5q0 43 29.5 72.5t70.5 29.5q43 0 70.5 -29.5t27.5 -72.5z" />
<glyph unicode="&#x30b;" horiz-adv-x="614" d="M715 1403l-223 -279h-111l162 279h172zM424 1403l-225 -279h-109l162 279h172z" />
<glyph unicode="&#x400;" horiz-adv-x="987" d="M915 0h-761v1380h731v-147h-555v-438h524v-148h-524v-500h585v-147zM625 1483h-127l-248 293h197z" />
<glyph unicode="&#x401;" horiz-adv-x="987" d="M915 0h-761v1380h731v-147h-555v-438h524v-148h-524v-500h585v-147zM807 1579q0 -45 -28.5 -73.5t-71.5 -28.5t-70 29.5t-27 72.5t28 72.5t71 29.5t70.5 -29.5t27.5 -72.5zM434 1579q0 -45 -27.5 -73.5t-72.5 -28.5q-41 0 -68.5 29.5t-27.5 72.5t28.5 72.5t71.5 29.5 t69.5 -29.5t26.5 -72.5z" />
<glyph unicode="&#x402;" horiz-adv-x="1331" d="M1034 1380v-149h-485v-393h6q47 31 118.5 57.5t149.5 26.5q113 0 191 -46.5t133 -125.5q55 -80 78.5 -180.5t23.5 -204.5q0 -106 -29.5 -213t-88 -197t-146.5 -154.5t-203 -85.5l-32 140q59 16 117.5 50t101.5 93q45 59 69.5 146t24.5 204q0 92 -16.5 168t-51.5 131 q-39 59 -92 92t-131 33q-66 0 -122 -22.5t-101 -57.5v-692h-178v1231h-371v149h1034z" />
<glyph unicode="&#x403;" horiz-adv-x="886" d="M887 1380v-147h-557v-1233h-176v1380h733zM799 1694l-264 -240h-142l193 240h213z" />
<glyph unicode="&#x404;" horiz-adv-x="1150" d="M1044 1198q-49 25 -117.5 41t-146.5 16q-115 0 -206 -37.5t-156.5 -102t-105.5 -151.5t-50 -188h688v-143h-686q2 -104 39 -196.5t103.5 -161t159.5 -108.5t208 -40q78 0 148.5 14.5t130.5 40.5l30 -137q-49 -25 -135 -46.5t-207 -21.5q-143 0 -265 48.5t-211 139.5 t-140 223t-51 300q0 145 48 275.5t138 227.5t219 154.5t293 57.5q129 0 204 -23.5t109 -42.5z" />
<glyph unicode="&#x405;" horiz-adv-x="991" d="M905 377q0 -172 -119 -279q-129 -117 -358 -116q-215 0 -344 86l45 147q137 -88 311 -88q135 0 210 64.5t75 170.5q0 98 -59.5 161t-196.5 114q-358 135 -358 391q0 162 122 266q121 106 320 107q182 0 297 -66l-49 -145q-109 66 -254 65q-129 0 -199 -67 q-57 -55 -57 -139q0 -92 63 -154q61 -55 205 -113q178 -72 262 -166t84 -239z" />
<glyph unicode="&#x406;" horiz-adv-x="485" d="M330 0h-176v1380h176v-1380z" />
<glyph unicode="&#x407;" horiz-adv-x="485" d="M330 0h-176v1380h176v-1380zM526 1579q0 -45 -28.5 -73.5t-71.5 -28.5t-69.5 29.5t-26.5 72.5t27.5 72.5t70.5 29.5t70.5 -29.5t27.5 -72.5zM154 1579q0 -45 -28 -73.5t-73 -28.5q-41 0 -67.5 29.5t-26.5 72.5t27.5 72.5t70.5 29.5q41 0 69 -29.5t28 -72.5z" />
<glyph unicode="&#x408;" horiz-adv-x="743" d="M604 453q0 -473 -411 -473q-104 0 -185 28l25 146q68 -25 147 -25q125 0 180 68q66 82 66 270v913h178v-927z" />
<glyph unicode="&#x409;" horiz-adv-x="1763" d="M1004 1380v-520q31 4 80 7t83 3q100 0 193.5 -24.5t165 -76.5t114.5 -133t43 -196q0 -98 -29.5 -171.5t-82.5 -127.5q-84 -84 -209 -118.5t-264 -34.5q-92 0 -161 5t-112 11v1229h-401v-420q0 -113 -5 -227.5t-24.5 -218t-60.5 -186.5t-111 -132q-35 -25 -93 -45 t-112 -20l-26 143q41 8 81 29.5t62 46.5q41 39 64.5 106.5t36 148.5t15.5 169t3 172v581h750zM1004 135q31 -4 62.5 -6t72.5 -2q74 0 138 18.5t113.5 57.5t78 97t28.5 136q0 80 -29.5 136.5t-79 92t-115 51t-134.5 15.5q-31 0 -67 -2t-68 -6v-588z" />
<glyph unicode="&#x40a;" horiz-adv-x="1794" d="M330 1380v-551h526v551h178v-538q31 4 80 7t103 3q98 0 188 -23.5t158.5 -73.5t109.5 -129t41 -188q0 -100 -30.5 -172.5t-84.5 -126.5q-82 -86 -202.5 -118.5t-266.5 -32.5q-92 0 -161.5 5t-112.5 11v674h-526v-678h-176v1380h176zM1034 137q29 -6 61.5 -8t75.5 -2 q70 0 134.5 17.5t113.5 55.5t79 95t30 137q0 76 -29 129t-77 87t-111.5 49.5t-132.5 15.5q-47 0 -81 -2t-63 -6v-568z" />
<glyph unicode="&#x40b;" horiz-adv-x="1349" d="M1012 1380v-149h-467v-395h4q57 35 138 64.5t167 29.5q84 0 143.5 -24.5t104.5 -69.5q104 -111 104 -322v-514h-180v489q0 78 -14.5 132.5t-48.5 93.5q-31 35 -71 52t-99 17q-63 0 -132 -26.5t-116 -61.5v-696h-180v1231h-365v149h1012z" />
<glyph unicode="&#x40c;" horiz-adv-x="1087" d="M330 1380v-612h47l461 612h215l-510 -632q82 -12 142 -43t103 -77t75 -106.5t59 -130.5q37 -106 69.5 -202.5t77.5 -188.5h-192q-35 72 -65 158t-58 168q-23 68 -52.5 125t-72.5 97t-103.5 62.5t-146.5 22.5h-49v-633h-176v1380h176zM854 1694l-264 -240h-141l192 240 h213z" />
<glyph unicode="&#x40d;" horiz-adv-x="1323" d="M324 1380v-581q0 -164 -3.5 -304.5t-13.5 -279.5l6 -2q51 109 111.5 221.5t134.5 235.5l434 710h174v-1380h-168v588q0 168 3.5 299t13.5 262l-8 2q-49 -115 -113 -231.5t-133 -233.5l-420 -686h-186v1380h168zM780 1483h-127l-248 293h197z" />
<glyph unicode="&#x40e;" horiz-adv-x="1042" d="M418 1671q6 -49 29.5 -89t95.5 -40q70 0 94.5 39t30.5 90h137q-8 -104 -71.5 -162.5t-194.5 -58.5q-127 0 -188.5 59.5t-69.5 161.5h137zM205 1380l268 -589q25 -61 48.5 -123t45.5 -121h4q16 53 37 114.5t45 133.5l211 585h187l-281 -710q-29 -70 -57.5 -142.5 t-60 -142.5t-65.5 -131t-69 -109q-66 -86 -139.5 -128t-165.5 -42q-68 0 -100 13l18 145q20 -6 62 -6q53 0 95 22.5t73.5 58.5t55 78t40.5 79q10 23 8 40t-14 41l-447 934h201z" />
<glyph unicode="&#x40f;" horiz-adv-x="1275" d="M330 1380v-1233h616v1233h176v-1380h-395l-16 -356h-148l-14 356h-395v1380h176z" />
<glyph unicode="&#x410;" horiz-adv-x="1228" d="M1182 0h-189l-143 432h-477l-140 -432h-182l459 1380h213zM815 571l-133 394q-12 35 -28.5 99t-41.5 157h-4q-10 -41 -27.5 -104.5t-39.5 -149.5l-133 -396h407z" />
<glyph unicode="&#x411;" horiz-adv-x="1103" d="M915 1380v-147h-585v-373q33 4 81 7t83 3q98 0 189 -22.5t163 -69.5q78 -51 127 -133t49 -205q0 -98 -30.5 -171.5t-84.5 -127.5q-86 -84 -214 -118.5t-269 -34.5q-94 0 -159.5 5t-110.5 11v1376h761zM330 137q31 -6 63.5 -8t79.5 -2q84 0 160 26.5t127 79.5 q35 37 55.5 87.5t20.5 115.5q0 80 -31 135.5t-82 90.5q-53 37 -118.5 53t-139.5 16q-31 0 -65.5 -2t-69.5 -6v-586z" />
<glyph unicode="&#x412;" horiz-adv-x="1093" d="M1012 393q0 -166 -117 -276q-139 -127 -469 -127q-72 0 -139.5 3t-132.5 11v1358q137 29 319 29q248 0 373 -101q115 -90 115 -243q0 -100 -61.5 -182.5t-172.5 -119.5v-6q115 -27 193 -108q92 -97 92 -238zM780 1030q0 225 -297 225q-104 0 -153 -14v-444h157 q135 0 214 64.5t79 168.5zM825 395q0 133 -104 205q-94 63 -248 64h-143v-529q41 -8 145 -8q170 0 260 70.5t90 197.5z" />
<glyph unicode="&#x413;" horiz-adv-x="886" d="M887 1380v-147h-557v-1233h-176v1380h733z" />
<glyph unicode="&#x414;" horiz-adv-x="1273" d="M1083 1380v-1235l121 -4l-12 -473h-139l-13 332h-854l-12 -332h-139l-12 473l104 4q39 72 75 147t60 157q35 121 50.5 261t15.5 320v350h755zM492 973q0 -166 -16.5 -306.5t-53.5 -256.5q-23 -72 -52.5 -139.5t-60.5 -123.5h598v1086h-415v-260z" />
<glyph unicode="&#x415;" horiz-adv-x="987" d="M915 0h-761v1380h731v-147h-555v-438h524v-148h-524v-500h585v-147z" />
<glyph unicode="&#x416;" horiz-adv-x="1603" d="M250 1380l420 -612h45v612h174v-612h47l418 612h209l-480 -635q80 -8 137.5 -36.5t100.5 -74.5t72.5 -107.5t54.5 -135.5q35 -98 63.5 -196.5t69.5 -194.5h-182q-35 70 -60.5 160t-50.5 164q-25 70 -51.5 127t-65 98t-94 62.5t-137.5 21.5h-51v-633h-174v633h-53 q-82 0 -137.5 -21.5t-94.5 -62.5t-66.5 -98.5t-52.5 -126.5q-23 -74 -48 -164t-58 -160h-182q43 96 71.5 193.5t61.5 195.5q25 74 55.5 134.5t72.5 106.5t99 75.5t137 39.5l-479 635h209z" />
<glyph unicode="&#x417;" horiz-adv-x="985" d="M102 1298q70 47 157 76t198 29q88 0 160.5 -22.5t125 -66.5t81 -106.5t28.5 -142.5q0 -129 -79 -218t-198 -118v-4q141 -16 233.5 -106.5t92.5 -239.5q0 -109 -41 -184.5t-109.5 -123.5t-155.5 -71t-179 -23t-183.5 21.5t-166.5 69.5l45 139q53 -33 132 -58.5t163 -25.5 q150 0 229.5 73.5t79.5 188.5q0 78 -33 129t-85 82t-117.5 43t-129.5 12h-74v135h74q66 0 123 19.5t99 54.5t67 81t25 99q0 104 -64.5 160.5t-175.5 56.5q-78 0 -148.5 -27.5t-123.5 -62.5z" />
<glyph unicode="&#x418;" horiz-adv-x="1323" d="M324 1380v-581q0 -164 -3.5 -304.5t-13.5 -279.5l6 -2q51 109 111.5 221.5t134.5 235.5l434 710h174v-1380h-168v588q0 168 3.5 299t13.5 262l-8 2q-49 -115 -113 -231.5t-133 -233.5l-420 -686h-186v1380h168z" />
<glyph unicode="&#x419;" horiz-adv-x="1323" d="M537 1671q6 -49 29.5 -89t95.5 -40q70 0 94 39t30 90h138q-8 -104 -72 -162.5t-195 -58.5q-127 0 -188 59.5t-70 161.5h138zM324 1380v-581q0 -164 -3.5 -304.5t-13.5 -279.5l6 -2q51 109 111.5 221.5t134.5 235.5l434 710h174v-1380h-168v588q0 168 3.5 299t13.5 262 l-8 2q-49 -115 -113 -231.5t-133 -233.5l-420 -686h-186v1380h168z" />
<glyph unicode="&#x41a;" horiz-adv-x="1087" d="M330 1380v-612h47l461 612h215l-510 -632q82 -12 142 -43t103 -77t75 -106.5t59 -130.5q37 -106 69.5 -202.5t77.5 -188.5h-192q-35 72 -65 158t-58 168q-23 68 -52.5 125t-72.5 97t-103.5 62.5t-146.5 22.5h-49v-633h-176v1380h176z" />
<glyph unicode="&#x41b;" horiz-adv-x="1198" d="M1044 1380v-1380h-178v1233h-442v-420q0 -113 -5 -227.5t-24.5 -218t-60.5 -186.5t-113 -132q-37 -25 -92 -45t-115 -20l-24 143q41 8 81 28.5t62 45.5q41 41 64.5 108.5t36 148.5t15.5 169t3 172v581h792z" />
<glyph unicode="&#x41c;" horiz-adv-x="1617" d="M1501 0h-172l-33 606q-10 190 -17 327.5t-5 227.5v37h-6q-35 -125 -77 -255t-91 -267l-240 -668h-133l-219 656q-49 150 -88 282.5t-68 251.5h-4q-4 -150 -10 -301.5t-16 -304.5l-37 -592h-168l96 1380h223l230 -665q78 -225 137 -465h6q59 233 143 465l240 665h225z" />
<glyph unicode="&#x41d;" horiz-adv-x="1310" d="M1157 0h-178v647h-649v-647h-176v1380h176v-579h649v579h178v-1380z" />
<glyph unicode="&#x41e;" horiz-adv-x="1376" d="M1303 705q0 -309 -154 -508q-168 -217 -471 -217q-285 0 -451 210q-154 193 -153 490q0 301 157 502q172 221 467 221q287 0 453 -211q152 -194 152 -487zM1114 696q0 221 -100 377q-121 184 -326 184q-209 0 -330 -188q-100 -156 -100 -385q0 -219 102 -377 q119 -184 326 -184q213 0 330 188q98 160 98 385z" />
<glyph unicode="&#x41f;" horiz-adv-x="1280" d="M1126 1380v-1380h-176v1233h-620v-1233h-176v1380h972z" />
<glyph unicode="&#x420;" horiz-adv-x="1071" d="M991 987q0 -184 -106 -293q-145 -152 -416 -151q-94 0 -139 12v-555h-176v1364q76 14 159.5 20.5t175.5 6.5q256 0 381 -113q121 -109 121 -291zM813 979q0 131 -86 201.5t-233 70.5q-104 0 -164 -14v-539q49 -14 141 -14q162 0 252 77t90 218z" />
<glyph unicode="&#x421;" horiz-adv-x="1159" d="M1053 1198q-115 55 -269 55q-242 0 -378 -147q-145 -152 -146 -422q0 -129 36 -231.5t102.5 -175t161.5 -110.5t216 -38q168 0 283 55l35 -141q-127 -61 -355 -61q-293 0 -475 176q-190 186 -190 520q0 326 194 524q197 199 510 199q205 0 318 -60z" />
<glyph unicode="&#x422;" horiz-adv-x="997" d="M999 1231h-411v-1231h-178v1231h-410v149h999v-149z" />
<glyph unicode="&#x423;" horiz-adv-x="1042" d="M205 1380l268 -589q25 -61 48.5 -123t45.5 -121h4q16 53 37 114.5t45 133.5l211 585h187l-281 -710q-29 -70 -57.5 -142.5t-60 -142.5t-65.5 -131t-69 -109q-66 -86 -139.5 -128t-165.5 -42q-68 0 -100 13l18 145q20 -6 62 -6q53 0 95 22.5t73.5 58.5t55 78t40.5 79 q10 23 8 40t-14 41l-447 934h201z" />
<glyph unicode="&#x424;" horiz-adv-x="1452" d="M811 1436v-123q106 -4 207.5 -41t181.5 -112t129 -191.5t49 -278.5q0 -164 -48 -277.5t-128 -187t-182 -109.5t-209 -42v-129h-168v129q-104 6 -206.5 41t-183.5 106.5t-130 184t-49 276.5q0 170 52 287.5t135 191.5t183.5 110t198.5 42v123h168zM643 1184 q-66 -4 -135.5 -31t-126.5 -85t-93 -150.5t-36 -227.5q0 -123 33.5 -212t88 -148.5t125 -90t144.5 -38.5v983zM811 201q72 6 141.5 35.5t125 88t89 148.5t33.5 219q0 133 -33.5 225.5t-89 149.5t-125 85t-141.5 32v-983z" />
<glyph unicode="&#x425;" horiz-adv-x="1144" d="M1096 0h-205l-172 307q-29 47 -68 114.5t-88 156.5h-4q-2 -4 -38 -72t-105 -201l-164 -305h-203l414 700l-397 680h202l181 -323q41 -76 72.5 -134.5t51.5 -99.5h5q43 92 122 234l183 323h202l-411 -671z" />
<glyph unicode="&#x426;" horiz-adv-x="1306" d="M330 1380v-1230h614v1230h178v-1235l119 -4l-12 -473h-142l-12 332h-921v1380h176z" />
<glyph unicode="&#x427;" horiz-adv-x="1202" d="M322 1380v-442q0 -141 70.5 -219t213.5 -78q72 0 141.5 22.5t122.5 57.5v659h179v-1380h-179v582h-4q-72 -41 -152.5 -63.5t-168.5 -22.5q-68 0 -138.5 17t-129 63.5t-95.5 127t-37 207.5v469h177z" />
<glyph unicode="&#x428;" horiz-adv-x="1699" d="M328 1380v-1233h434v1233h174v-1233h434v1233h176v-1380h-1392v1380h174z" />
<glyph unicode="&#x429;" horiz-adv-x="1730" d="M154 0v1380h174v-1233h434v1233h174v-1233h434v1233h176v-1235l119 -4l-12 -473h-142l-12 332h-1345z" />
<glyph unicode="&#x42a;" horiz-adv-x="1263" d="M518 1380v-516q29 4 76 7t86 3q98 0 188 -24.5t161 -76.5t113 -134t42 -195q0 -98 -28 -169.5t-75 -124.5q-86 -92 -211 -127t-260 -35q-90 0 -157.5 5t-110.5 11v1229h-346v147h522zM518 137q29 -6 61.5 -8t73.5 -2q74 0 136.5 18.5t108.5 57.5t72.5 97t26.5 136 q0 80 -28.5 137.5t-76.5 92t-109.5 51t-127.5 16.5q-35 0 -70.5 -3t-66.5 -7v-586z" />
<glyph unicode="&#x42b;" horiz-adv-x="1497" d="M330 1380v-516q29 4 78 7t81 3q104 0 198.5 -24.5t165.5 -76.5t113 -134t42 -197q0 -96 -28 -167.5t-77 -124.5q-41 -45 -95 -76t-115.5 -50.5t-130 -27.5t-136.5 -8q-92 0 -160.5 5t-111.5 11v1376h176zM330 137q27 -6 59.5 -8t77.5 -2q72 0 136.5 18.5t113.5 57.5 t77.5 97t28.5 136q0 80 -30.5 137.5t-80.5 92t-115 51t-132 16.5q-47 0 -83 -3t-52 -7v-586zM1335 1380v-1380h-174v1380h174z" />
<glyph unicode="&#x42c;" horiz-adv-x="1093" d="M330 1380v-516q31 4 81 7t85 3q104 0 197 -24.5t165 -76.5t114 -133t42 -196q0 -98 -29 -169.5t-76 -124.5q-84 -90 -212 -126t-269 -36q-92 0 -161.5 5t-112.5 11v1376h176zM330 137q31 -6 63.5 -8t77.5 -2q74 0 138.5 18.5t112.5 56.5t76.5 95t28.5 137 q0 82 -28.5 138.5t-77.5 92t-114.5 52t-137.5 16.5q-33 0 -68.5 -3t-70.5 -7v-586z" />
<glyph unicode="&#x42d;" horiz-adv-x="1132" d="M246 778h626q-8 100 -42.5 187.5t-93 152t-139.5 101t-185 36.5q-82 0 -152 -20.5t-135 -48.5l-43 137q72 33 157 56.5t183 23.5q158 0 277.5 -55.5t199.5 -151.5t120 -227t40 -281q0 -170 -51.5 -302t-139.5 -223t-205.5 -138.5t-250.5 -47.5q-100 0 -189.5 18.5 t-161.5 53.5l37 141q59 -29 137 -46t152 -17q111 0 200 39t151.5 107.5t97 160.5t38.5 201h-628v143z" />
<glyph unicode="&#x42e;" horiz-adv-x="1732" d="M330 1380v-596h196q12 143 59.5 258t121 195t173 123t218.5 43q131 0 235.5 -51.5t176 -144.5t110.5 -221t39 -281q0 -180 -45 -316.5t-124 -227.5t-184.5 -137.5t-224.5 -46.5q-123 0 -223 46.5t-173 131.5t-115 206.5t-48 273.5h-192v-635h-176v1380h176zM1090 121 q94 0 166.5 46t123 124t76 183.5t25.5 221.5q0 102 -23.5 203.5t-72 181.5t-122 129.5t-171.5 49.5q-100 0 -175 -48.5t-124.5 -128t-74 -184t-24.5 -217.5q0 -109 25.5 -210t76 -179t124 -125t167.5 -47h3z" />
<glyph unicode="&#x42f;" horiz-adv-x="1083" d="M29 0q16 29 28.5 59.5t24.5 65.5q20 59 39.5 122.5t42 125t52.5 117t71 98.5q47 49 110 69v7q-61 10 -115.5 38.5t-94.5 71.5t-63.5 100.5t-23.5 129.5q0 92 33 162.5t90 117.5q129 106 385 107q86 0 171 -7.5t151 -21.5v-1362h-176v598h-123q-63 0 -110.5 -15.5 t-82.5 -52.5t-60.5 -90t-46 -112.5t-36.5 -118.5t-35 -109q-10 -27 -19.5 -49t-25.5 -51h-186zM754 1235q-23 6 -62 12t-98 6q-66 0 -123 -13t-100 -44t-67.5 -80t-24.5 -121q0 -61 25.5 -110t69.5 -83t104.5 -51.5t131.5 -17.5h82t62 2v500z" />
<glyph unicode="&#x430;" horiz-adv-x="970" d="M686 0l-16 123h-4q-100 -143 -297 -143q-139 0 -222 86q-76 78 -75 196q0 180 148.5 274.5t426.5 94.5h8v20q0 229 -221 230q-143 0 -252 -72l-41 119q133 84 322 84q369 0 368 -402v-374q0 -141 17 -236h-162zM657 506h-30q-377 0 -377 -223q0 -86 47 -129t119 -43 q90 0 153 51q41 33 64.5 75t23.5 95v174z" />
<glyph unicode="&#x431;" horiz-adv-x="1013" d="M840 1327q-18 -6 -44 -13t-53.5 -12.5t-56.5 -10.5t-49 -9q-109 -18 -186.5 -61t-124.5 -125q-41 -68 -67 -159t-30 -169h4q18 59 50 101t73 70t88.5 40t94.5 12q80 0 152.5 -31.5t126.5 -94t86 -153.5t32 -210q0 -244 -110.5 -384.5t-315.5 -140.5q-121 0 -204 57.5 t-133 151t-71.5 213t-21.5 242.5q0 170 33.5 307t107.5 242q68 104 165 156.5t232 76.5q55 10 119 22.5t111 31.5zM756 489q0 59 -12.5 124t-40 119t-75.5 90t-118 36q-66 0 -112 -32.5t-74.5 -84t-43 -112t-14.5 -117.5q0 -61 14.5 -132t45 -130.5t77 -99t111.5 -39.5 q66 0 112 32.5t74.5 87t42 122t13.5 134.5v2z" />
<glyph unicode="&#x432;" horiz-adv-x="1001" d="M141 979q51 10 137.5 16t172.5 6q61 0 136 -7t140.5 -33.5t110.5 -75.5t45 -131q0 -92 -61.5 -148.5t-143.5 -75.5v-4q106 -16 177 -76.5t71 -168.5q0 -98 -53.5 -155.5t-131 -88.5t-167 -40t-160.5 -9q-82 0 -158 4t-115 8v979zM311 575h131q49 0 96.5 8.5t84 27 t59.5 48t23 72.5q0 74 -62.5 110t-196.5 36q-45 0 -73.5 -2.5t-61.5 -6.5v-293zM309 119q39 -4 69 -6t73 -2q45 0 96 7t95 25.5t72.5 52t28.5 87.5q0 53 -24.5 86.5t-66.5 53t-97 27t-119 7.5h-127v-338z" />
<glyph unicode="&#x433;" horiz-adv-x="768" d="M737 991v-145h-420v-846h-176v991h596z" />
<glyph unicode="&#x434;" horiz-adv-x="1056" d="M895 991v-856l100 -2l-10 -448h-141l-8 315h-666l-8 -315h-142l-8 448l82 2q33 47 56.5 98.5t39.5 104.5q29 92 43.5 191.5t14.5 203.5v258h647zM408 690q0 -98 -13.5 -191t-38.5 -177q-14 -51 -34.5 -97.5t-42.5 -87.5h440v717h-311v-164z" />
<glyph unicode="&#x435;" horiz-adv-x="1007" d="M934 553q0 -55 -6 -88h-680q4 -164 92 -254t242 -90q145 0 266 49l31 -127q-135 -59 -324 -59q-111 0 -199 34.5t-150.5 100t-95 157t-32.5 205.5q0 229 123 381q127 152 334 152q211 0 317 -162q82 -125 82 -299zM762 594q0 117 -47 190q-63 100 -195 101 q-123 0 -196 -99q-59 -80 -74 -192h512z" />
<glyph unicode="&#x436;" horiz-adv-x="1335" d="M229 991l322 -432h33v432h170v-432h30l322 432h205l-385 -450q111 -12 179.5 -78t113.5 -184q25 -72 50 -146t54 -133h-178q-23 45 -44.5 103.5t-43.5 123.5q-45 121 -114 166t-163 45h-26v-438h-170v438h-29q-102 0 -167.5 -46t-111.5 -167q-25 -66 -45 -122t-47 -103 h-172q29 59 54.5 133t50.5 143q47 121 115.5 186.5t179.5 78.5l-387 450h204z" />
<glyph unicode="&#x437;" horiz-adv-x="864" d="M225 575h82q113 0 181.5 45.5t68.5 114.5q0 66 -53 105t-135 39q-53 0 -118 -16.5t-116 -49.5l-49 119q74 45 158 62.5t170 17.5q55 0 114.5 -13.5t106.5 -44t77.5 -81t30.5 -121.5q0 -47 -19 -84t-50 -66t-70 -48t-80 -28v-4q55 -4 103.5 -23.5t84.5 -51t56 -74.5 t20 -99q0 -80 -36.5 -136t-96 -92t-134.5 -51t-150 -15q-86 0 -169 17t-151 54l49 125q53 -29 122 -47t134 -18q111 0 174.5 48t63.5 122q0 49 -23.5 82.5t-62.5 53t-90 28t-107 8.5h-86v122z" />
<glyph unicode="&#x438;" horiz-adv-x="1112" d="M311 991v-418v-108t-1 -96t-3 -93.5t-4 -99.5h6q20 45 38 82t35 72t34.5 70.5t42.5 78.5l303 512h209v-991h-172v420q0 61 1 109.5t2 94.5t3 94t4 107h-6q-23 -47 -42.5 -87t-37.5 -76.5t-37.5 -71.5t-40.5 -72q-70 -117 -147.5 -252t-155.5 -266h-201v991h170z" />
<glyph unicode="&#x439;" horiz-adv-x="1112" d="M420 1395q4 -66 35.5 -111t95.5 -45q66 0 98.5 44t38.5 112h131q-8 -127 -80.5 -190.5t-191.5 -63.5q-68 0 -116 19.5t-78.5 54t-46 80.5t-17.5 100h131zM311 991v-418v-108t-1 -96t-3 -93.5t-4 -99.5h6q20 45 38 82t35 72t34.5 70.5t42.5 78.5l303 512h209v-991h-172 v420q0 61 1 109.5t2 94.5t3 94t4 107h-6q-23 -47 -42.5 -87t-37.5 -76.5t-37.5 -71.5t-40.5 -72q-70 -117 -147.5 -252t-155.5 -266h-201v991h170z" />
<glyph unicode="&#x43a;" horiz-adv-x="954" d="M317 991v-430h39l365 430h217l-424 -448q119 -12 194.5 -89t133.5 -212q20 -49 44.5 -116t59.5 -126h-186q-20 33 -44 87t-46 116q-51 121 -125 177t-197 56h-31v-436h-176v991h176z" />
<glyph unicode="&#x43b;" horiz-adv-x="1017" d="M877 991v-991h-177v848h-331v-252q0 -96 -7.5 -201.5t-41 -195.5t-103.5 -149.5t-194 -63.5l-19 143q27 4 53.5 14.5t42.5 26.5q68 49 84.5 154.5t16.5 271.5v395h676z" />
<glyph unicode="&#x43c;" horiz-adv-x="1282" d="M156 991h219l176 -499q8 -29 20.5 -64t23.5 -72t22.5 -72.5t19.5 -64.5h4q8 27 21.5 69t29 88t31.5 94t31 89l155 432h221l68 -991h-170l-22 473q-4 80 -8.5 171t-6.5 183h-6q-10 -35 -20.5 -67.5t-22.5 -70.5t-26.5 -82t-34.5 -101l-189 -500h-131l-174 490 q-10 35 -23.5 77.5t-25.5 88t-24.5 87.5t-20.5 76h-6q-4 -88 -7.5 -181t-7.5 -175l-24 -469h-164z" />
<glyph unicode="&#x43d;" horiz-adv-x="1093" d="M317 991v-399h459v399h176v-991h-176v449h-459v-449h-176v991h176z" />
<glyph unicode="&#x43e;" horiz-adv-x="1101" d="M1024 504q0 -229 -125 -373q-133 -152 -356 -151q-215 0 -344 147q-121 145 -121 360q0 229 125 373q133 152 356 152q217 0 344 -148q121 -143 121 -360zM842 498q0 150 -70 256q-80 125 -221 125q-143 0 -225 -125q-70 -106 -70 -260q0 -147 72 -256q80 -125 221 -125 q137 0 221 127q72 113 72 258z" />
<glyph unicode="&#x43f;" horiz-adv-x="1093" d="M952 991v-991h-176v848h-459v-848h-176v991h811z" />
<glyph unicode="&#x440;" horiz-adv-x="1142" d="M1065 510q0 -256 -135 -399q-119 -131 -305 -131q-205 0 -297 151h-4v-534h-177v1073q0 80 -2 159.5t-6 161.5h160v-166h12q113 186 342 187q180 0 295 -140q117 -139 117 -362zM885 502q0 156 -72 258q-80 111 -213 110q-92 0 -166 -60t-98 -159q-12 -47 -12 -73v-177 q0 -59 20.5 -110t56 -90t85 -60.5t108.5 -21.5q137 0 214 105.5t77 277.5z" />
<glyph unicode="&#x441;" horiz-adv-x="897" d="M803 823q-88 47 -203 47q-162 0 -254 -112q-88 -100 -88 -264q0 -84 24.5 -153t69.5 -117t107.5 -74.5t136.5 -26.5q102 0 213 47l29 -135q-117 -53 -275 -53q-223 0 -354 137t-131 366q0 233 143 379q143 147 379 148q147 0 242 -51z" />
<glyph unicode="&#x442;" horiz-adv-x="817" d="M799 991v-143h-303v-848h-177v848h-301v143h781z" />
<glyph unicode="&#x443;" horiz-adv-x="948" d="M932 991l-262 -702q-49 -133 -92 -230.5t-76 -162.5q-78 -147 -166 -228q-109 -96 -217 -117l-47 150q88 29 157 90q92 78 146 199q14 27 14 41q0 12 -12 47l-357 913h193l211 -585q16 -41 30.5 -91.5t30.5 -109.5h7q10 33 24 84t37 121l190 581h189z" />
<glyph unicode="&#x444;" horiz-adv-x="1290" d="M725 1452v-442q106 -8 195.5 -45t154 -102.5t101 -157t36.5 -207.5q0 -123 -37.5 -216.5t-104 -158t-156 -100t-189.5 -41.5v-388h-162v386q-104 6 -193 42.5t-153.5 101t-101.5 156t-37 207.5q0 123 38 217.5t103.5 159t153.5 101t190 45.5v442h162zM563 887 q-74 -10 -132 -44t-98 -86t-60.5 -120t-20.5 -143q0 -78 21.5 -144.5t61.5 -118t98.5 -85t129.5 -42.5v783zM725 104q74 10 131 44t98 86.5t62.5 120t21.5 143.5t-21.5 142.5t-62.5 117.5t-98 85t-131 44v-783z" />
<glyph unicode="&#x445;" horiz-adv-x="931" d="M907 0h-202l-142 223q-20 33 -47 76t-57 96h-4q-14 -29 -40 -70.5t-63 -101.5l-139 -223h-197l344 506l-327 485h198l138 -213q23 -33 46 -72.5t52 -89.5h6q20 39 44 79t52 85l136 211h194l-332 -479z" />
<glyph unicode="&#x446;" horiz-adv-x="1101" d="M317 991v-850h447v850h176v-856l100 -2l-10 -448h-137l-8 315h-744v991h176z" />
<glyph unicode="&#x447;" horiz-adv-x="1030" d="M305 991v-334q0 -94 42 -152.5t157 -58.5q57 0 112.5 19.5t96.5 48.5v477h176v-1003h-176v401h-4q-49 -35 -121 -55.5t-142 -20.5q-139 0 -228 76t-89 246v356h176z" />
<glyph unicode="&#x448;" horiz-adv-x="1478" d="M317 991v-850h334v850h176v-850h334v850h176v-991h-1196v991h176z" />
<glyph unicode="&#x449;" horiz-adv-x="1497" d="M317 991v-850h334v850h176v-850h334v850h176v-856l99 -2l-11 -448h-137l-8 315h-1139v991h176z" />
<glyph unicode="&#x44a;" horiz-adv-x="1167" d="M492 991v-334q35 4 77.5 6.5t87.5 2.5q76 0 153 -16.5t139.5 -54.5t101.5 -102.5t39 -160.5q0 -78 -28 -133.5t-75 -96.5q-41 -35 -90 -56t-102.5 -33.5t-109.5 -17.5t-110 -5q-72 0 -138 4t-124 10v846h-286v141h465zM492 127q27 -4 56.5 -7t72.5 -3q55 0 107 10 t92 34.5t64.5 64.5t24.5 100q0 63 -26.5 104t-68.5 64.5t-95 33t-107 9.5q-33 0 -61.5 -3.5t-58.5 -7.5v-399z" />
<glyph unicode="&#x44b;" horiz-adv-x="1337" d="M317 991v-338q29 6 71 9.5t89 3.5q78 0 154 -17.5t134 -57.5t94 -102.5t36 -154.5q0 -78 -26.5 -133.5t-73.5 -96.5q-41 -35 -89.5 -57t-99.5 -34.5t-103 -17.5t-100 -5q-74 0 -140 4t-122 10v987h176zM317 125q27 -4 55.5 -6t65.5 -2q51 0 100.5 11t89.5 36.5t64.5 65.5 t24.5 98q0 59 -23.5 99t-61.5 64.5t-87 35t-99 10.5q-37 0 -68.5 -3.5t-60.5 -7.5v-401zM1196 991v-991h-176v991h176z" />
<glyph unicode="&#x44c;" horiz-adv-x="1003" d="M317 991v-336q33 6 77 8.5t85 2.5q82 0 162 -15.5t143.5 -53.5t102.5 -102.5t39 -162.5q0 -78 -28 -132.5t-75 -95.5q-41 -35 -91 -57t-105.5 -34.5t-113.5 -17.5t-112 -5q-74 0 -140 4t-120 10v987h176zM317 125q27 -4 55.5 -6t73.5 -2q49 0 102.5 9t97.5 33.5t73 65.5 t29 103q0 63 -30 104t-74 64.5t-98 32t-104 8.5q-35 0 -64.5 -3.5t-60.5 -7.5v-401z" />
<glyph unicode="&#x44d;" horiz-adv-x="931" d="M186 569h488q-6 61 -28.5 116.5t-63.5 96.5t-101.5 64.5t-142.5 23.5q-76 0 -133.5 -18t-98.5 -37l-38 129q63 37 143 52.5t158 15.5q104 0 195 -36t157 -106q63 -66 98 -161t35 -217q0 -109 -34 -202t-100.5 -163t-162.5 -108.5t-219 -38.5q-78 0 -151.5 15t-133.5 44 l37 135q35 -16 94.5 -34.5t145.5 -18.5q147 0 239.5 83t102.5 242h-486v123z" />
<glyph unicode="&#x44e;" horiz-adv-x="1415" d="M315 991v-418h166q10 98 46 179.5t92.5 139.5t131 90t160.5 32q94 0 173 -37t135.5 -103.5t87 -161t30.5 -208.5q0 -121 -33.5 -218.5t-93 -166t-139.5 -105.5t-172 -37q-86 0 -160.5 32t-130 91.5t-90.5 144.5t-41 191h-162v-436h-174v991h174zM903 111q68 0 116 33.5 t78.5 89t46 125t15.5 141.5q0 70 -15.5 137.5t-46 121.5t-78.5 87t-114 33q-63 0 -111.5 -33t-81 -87t-49 -124t-16.5 -146q0 -72 15.5 -140t47 -121.5t80 -85t111.5 -31.5h2z" />
<glyph unicode="&#x44f;" horiz-adv-x="995" d="M854 0h-176v416h-127q-55 0 -94 -14.5t-68 -41.5q-29 -23 -48 -55.5t-34.5 -70t-28 -76.5t-26.5 -76q-10 -23 -20.5 -43.5t-20.5 -38.5h-191q35 51 62 113q14 37 28.5 77.5t31 80.5t38 76t53.5 65q23 20 49.5 35.5t61.5 21.5v6q-47 6 -93 23.5t-83 48.5t-59.5 74 t-22.5 100q0 78 37 130t92 85q59 35 144 51.5t182 16.5q88 0 169 -6.5t144 -14.5v-983zM678 872q-35 4 -66.5 7.5t-79.5 3.5q-45 0 -91 -7.5t-84 -27t-61.5 -53t-23.5 -84.5q0 -47 26 -80t64.5 -53.5t84 -29.5t83.5 -9h148v333z" />
<glyph unicode="&#x450;" horiz-adv-x="1007" d="M934 553q0 -55 -6 -88h-680q4 -164 92 -254t242 -90q145 0 266 49l31 -127q-135 -59 -324 -59q-111 0 -199 34.5t-150.5 100t-95 157t-32.5 205.5q0 229 123 381q127 152 334 152q211 0 317 -162q82 -125 82 -299zM762 594q0 117 -47 190q-63 100 -195 101 q-123 0 -196 -99q-59 -80 -74 -192h512zM621 1116h-127l-248 293h197z" />
<glyph unicode="&#x451;" horiz-adv-x="1007" d="M934 553q0 -55 -6 -88h-680q4 -164 92 -254t242 -90q145 0 266 49l31 -127q-135 -59 -324 -59q-111 0 -199 34.5t-150.5 100t-95 157t-32.5 205.5q0 229 123 381q127 152 334 152q211 0 317 -162q82 -125 82 -299zM762 594q0 117 -47 190q-63 100 -195 101 q-123 0 -196 -99q-59 -80 -74 -192h512zM827 1241q0 -43 -28.5 -72.5t-71.5 -29.5t-70.5 30.5t-27.5 71.5q0 43 28.5 72.5t71.5 29.5t70.5 -29.5t27.5 -72.5zM457 1241q0 -43 -29 -72.5t-72 -29.5t-70.5 30.5t-27.5 71.5q0 43 29.5 72.5t70.5 29.5q43 0 71 -29.5t28 -72.5z " />
<glyph unicode="&#x452;" horiz-adv-x="1120" d="M180 1280v172h178v-172h453v-129h-453v-291h4q53 59 129 100t166 41q92 0 161 -41.5t116 -117.5q59 -86 82.5 -199t23.5 -235q0 -209 -52 -358.5t-146 -229.5q-53 -47 -119 -77t-135 -38l-33 141q57 12 102 34t86 69q53 61 86 174t33 274q0 92 -15.5 181.5t-62.5 166.5 q-29 49 -77 80t-107 31t-114.5 -32.5t-98.5 -86.5q-14 -23 -21.5 -49t-7.5 -63v-625h-178v1151h-160v129h160z" />
<glyph unicode="&#x453;" horiz-adv-x="768" d="M705 1405l-250 -293h-129l180 293h199zM737 991v-145h-420v-846h-176v991h596z" />
<glyph unicode="&#x454;" horiz-adv-x="923" d="M825 821q-35 16 -88 33.5t-129 17.5q-80 0 -141 -23.5t-104.5 -64.5t-69 -96t-33.5 -119h490v-123h-488q6 -158 100.5 -241.5t241.5 -83.5q72 0 132.5 17.5t94.5 33.5l39 -133q-43 -23 -117.5 -41t-179.5 -18q-117 0 -209 38.5t-155.5 106.5t-97 160t-33.5 200 q0 119 39 216.5t109.5 166t168 106.5t213.5 38q86 0 158 -16.5t106 -37.5z" />
<glyph unicode="&#x455;" horiz-adv-x="796" d="M717 276q0 -135 -97.5 -214.5t-269.5 -79.5q-158 0 -272 65l43 135q109 -70 233 -69q190 0 191 147q0 63 -41 104.5t-139 77.5q-260 98 -261 281q0 121 93 205q96 84 245 84q139 0 240 -60l-45 -131q-88 57 -199 58q-76 0 -119 -38t-43 -98q0 -55 46 -94q37 -33 139 -74 q256 -102 256 -299z" />
<glyph unicode="&#x456;" horiz-adv-x="473" d="M350 1288q0 -51 -32.5 -82.5t-84.5 -31.5q-49 0 -80.5 32.5t-31.5 81.5t32.5 82t82.5 33q51 0 83.5 -32t30.5 -83zM326 0h-179v991h179v-991z" />
<glyph unicode="&#x457;" horiz-adv-x="473" d="M326 0h-179v991h179v-991zM520 1241q0 -43 -27.5 -72.5t-72.5 -29.5q-41 0 -68.5 30.5t-27.5 71.5q0 43 28.5 72.5t71.5 29.5q41 0 68.5 -29.5t27.5 -72.5zM150 1241q0 -43 -28 -72.5t-71 -29.5t-69.5 30.5t-26.5 71.5q0 43 27.5 72.5t70.5 29.5t70 -29.5t27 -72.5z" />
<glyph unicode="&#x458;" horiz-adv-x="491" d="M373 1288q0 -51 -33 -82.5t-84 -31.5q-49 0 -81 32.5t-32 81.5t34 82t83 33t82 -33t31 -82zM348 86q0 -285 -119 -403q-106 -111 -299 -113l-18 141q131 8 190 76q68 76 68 367v837h178v-905z" />
<glyph unicode="&#x459;" horiz-adv-x="1556" d="M877 991v-336q31 4 75.5 6.5t81.5 2.5q82 0 162 -16.5t143.5 -54.5t103.5 -102.5t40 -160.5q0 -76 -26.5 -130.5t-72.5 -95.5q-39 -35 -90 -57t-107.5 -34.5t-114.5 -17.5t-109 -5q-72 0 -139.5 4t-125.5 10v844h-319v-252q0 -94 -9.5 -199.5t-45 -195.5t-106.5 -150.5 t-195 -64.5l-19 143q27 4 53.5 14.5t42.5 24.5q70 49 90.5 156.5t20.5 271.5v395h666zM874 125q27 -4 57 -6t70 -2q49 0 102.5 9t97.5 33.5t73 64.5t29 102q0 63 -28 104t-71 64.5t-94 33t-98 9.5q-41 0 -74 -4.5t-64 -8.5v-399z" />
<glyph unicode="&#x45a;" horiz-adv-x="1572" d="M317 991v-368h406v368h178v-346q31 4 77 8t89 4q74 0 150.5 -16t138 -55t100.5 -102.5t39 -155.5q0 -78 -25.5 -132.5t-72.5 -95.5q-39 -35 -88 -56t-103.5 -33.5t-110 -16.5t-108.5 -4q-72 0 -141.5 4t-122.5 8v481h-406v-483h-176v991h176zM899 125q27 -4 55.5 -6 t75.5 -2t98.5 9t93.5 32.5t69.5 63.5t27.5 100q0 61 -26.5 102t-67.5 63.5t-93.5 31.5t-101.5 9q-39 0 -69.5 -3t-61.5 -7v-393z" />
<glyph unicode="&#x45b;" horiz-adv-x="1148" d="M358 1151v-322h4q47 80 130 126t178 46q131 0 219 -81q119 -111 119 -336v-584h-179v565q0 289 -223 289q-82 0 -146.5 -50t-90.5 -128q-10 -37 -11 -84v-592h-178v1151h-168v129h168v172h178v-172h398v-129h-398z" />
<glyph unicode="&#x45c;" horiz-adv-x="954" d="M764 1405l-250 -293h-129l180 293h199zM317 991v-430h39l365 430h217l-424 -448q119 -12 194.5 -89t133.5 -212q20 -49 44.5 -116t59.5 -126h-186q-20 33 -44 87t-46 116q-51 121 -125 177t-197 56h-31v-436h-176v991h176z" />
<glyph unicode="&#x45d;" horiz-adv-x="1112" d="M311 991v-418v-108t-1 -96t-3 -93.5t-4 -99.5h6q20 45 38 82t35 72t34.5 70.5t42.5 78.5l303 512h209v-991h-172v420q0 61 1 109.5t2 94.5t3 94t4 107h-6q-23 -47 -42.5 -87t-37.5 -76.5t-37.5 -71.5t-40.5 -72q-70 -117 -147.5 -252t-155.5 -266h-201v991h170zM703 1096 h-127l-248 293h197z" />
<glyph unicode="&#x45e;" horiz-adv-x="948" d="M340 1395q4 -66 36 -111t95 -45q66 0 98.5 44t38.5 112h131q-8 -127 -80.5 -190.5t-191.5 -63.5q-68 0 -116 19.5t-78.5 54t-46 80.5t-17.5 100h131zM932 991l-262 -702q-49 -133 -92 -230.5t-76 -162.5q-78 -147 -166 -228q-109 -96 -217 -117l-47 150q88 29 157 90 q92 78 146 199q14 27 14 41q0 12 -12 47l-357 913h193l211 -585q16 -41 30.5 -91.5t30.5 -109.5h7q10 33 24 84t37 121l190 581h189z" />
<glyph unicode="&#x45f;" horiz-adv-x="1079" d="M317 991v-850h445v850h176v-991h-313l-13 -322h-143l-14 322h-314v991h176z" />
<glyph unicode="&#x490;" horiz-adv-x="913" d="M752 1380l32 250h131l-22 -399h-563v-1231h-176v1380h598z" />
<glyph unicode="&#x491;" horiz-adv-x="802" d="M612 991l25 223h127l-12 -368h-435v-846h-176v991h471z" />
<glyph unicode="&#x4c0;" horiz-adv-x="485" d="M330 0h-176v1380h176v-1380z" />
<glyph unicode="&#x4c1;" horiz-adv-x="1603" d="M250 1380l420 -612h45v612h174v-612h47l418 612h209l-480 -635q80 -8 137.5 -36.5t100.5 -74.5t72.5 -107.5t54.5 -135.5q35 -98 63.5 -196.5t69.5 -194.5h-182q-35 70 -60.5 160t-50.5 164q-25 70 -51.5 127t-65 98t-94 62.5t-137.5 21.5h-51v-633h-174v633h-53 q-82 0 -137.5 -21.5t-94.5 -62.5t-66.5 -98.5t-52.5 -126.5q-23 -74 -48 -164t-58 -160h-182q43 96 71.5 193.5t61.5 195.5q25 74 55.5 134.5t72.5 106.5t99 75.5t137 39.5l-479 635h209zM1047 1725q-2 -111 -67.5 -176.5t-178.5 -65.5q-125 0 -188 76q-53 63 -58 166h103 q23 -139 141 -140q135 0 146 140h102z" />
<glyph unicode="&#x4c2;" horiz-adv-x="1335" d="M229 991l322 -432h33v432h170v-432h30l322 432h205l-385 -450q111 -12 179.5 -78t113.5 -184q25 -72 50 -146t54 -133h-178q-23 45 -44.5 103.5t-43.5 123.5q-45 121 -114 166t-163 45h-26v-438h-170v438h-29q-102 0 -167.5 -46t-111.5 -167q-25 -66 -45 -122t-47 -103 h-172q29 59 54.5 133t50.5 143q47 121 115.5 186.5t179.5 78.5l-387 450h204zM913 1338q-2 -111 -67.5 -176.5t-178.5 -65.5q-125 0 -188 76q-53 63 -58 166h103q23 -139 141 -140q135 0 146 140h102z" />
<glyph unicode="&#x4d0;" horiz-adv-x="1228" d="M1182 0h-189l-143 432h-477l-140 -432h-182l459 1380h213zM815 571l-133 394q-12 35 -28.5 99t-41.5 157h-4q-10 -41 -27.5 -104.5t-39.5 -149.5l-133 -396h407zM862 1725q-2 -111 -67.5 -176.5t-178.5 -65.5q-125 0 -188 76q-53 63 -58 166h103q23 -139 141 -140 q135 0 146 140h102z" />
<glyph unicode="&#x4d1;" horiz-adv-x="970" d="M686 0l-16 123h-4q-100 -143 -297 -143q-139 0 -222 86q-76 78 -75 196q0 180 148.5 274.5t426.5 94.5h8v20q0 229 -221 230q-143 0 -252 -72l-41 119q133 84 322 84q369 0 368 -402v-374q0 -141 17 -236h-162zM657 506h-30q-377 0 -377 -223q0 -86 47 -129t119 -43 q90 0 153 51q41 33 64.5 75t23.5 95v174zM705 1358q-2 -111 -67.5 -176.5t-178.5 -65.5q-125 0 -188 76q-53 63 -58 166h103q23 -139 141 -140q135 0 146 140h102z" />
<glyph unicode="&#x4d2;" horiz-adv-x="1228" d="M1182 0h-189l-143 432h-477l-140 -432h-182l459 1380h213zM815 571l-133 394q-12 35 -28.5 99t-41.5 157h-4q-10 -41 -27.5 -104.5t-39.5 -149.5l-133 -396h407zM901 1585q0 -43 -28.5 -72.5t-71.5 -29.5t-71 30.5t-28 71.5q0 43 29 72.5t72 29.5t70.5 -29.5t27.5 -72.5z M530 1585q0 -43 -28.5 -72.5t-71.5 -29.5t-70.5 30.5t-27.5 71.5q0 43 29.5 72.5t70.5 29.5q43 0 70.5 -29.5t27.5 -72.5z" />
<glyph unicode="&#x4d3;" horiz-adv-x="970" d="M686 0l-16 123h-4q-100 -143 -297 -143q-139 0 -222 86q-76 78 -75 196q0 180 148.5 274.5t426.5 94.5h8v20q0 229 -221 230q-143 0 -252 -72l-41 119q133 84 322 84q369 0 368 -402v-374q0 -141 17 -236h-162zM657 506h-30q-377 0 -377 -223q0 -86 47 -129t119 -43 q90 0 153 51q41 33 64.5 75t23.5 95v174zM744 1216q0 -43 -28.5 -72.5t-71.5 -29.5t-71 30.5t-28 71.5q0 43 29 72.5t72 29.5t70.5 -29.5t27.5 -72.5zM373 1216q0 -43 -28.5 -72.5t-71.5 -29.5t-70.5 30.5t-27.5 71.5q0 43 29.5 72.5t70.5 29.5q43 0 70.5 -29.5t27.5 -72.5z " />
<glyph unicode="&#x4d4;" horiz-adv-x="1581" d="M1518 147v-147h-650l-59 485h-412l-215 -485h-182l616 1380h846v-147h-571l51 -442h504v-148h-483l59 -496h496zM791 629l-43 397q-10 76 -25 227h-8q-49 -133 -86 -221l-174 -403h336z" />
<glyph unicode="&#x4d5;" horiz-adv-x="1554" d="M1481 561q0 -49 -6 -82h-650v-16q0 -166 85 -255t227 -89q147 0 262 55l33 -127q-131 -66 -320 -65q-129 0 -228.5 55t-140.5 160h-6q-96 -215 -360 -215q-143 0 -227 84q-78 82 -78 196q0 174 152.5 266.5t432.5 92.5v41q0 74 -39 131q-57 88 -186 88q-143 0 -250 -72 l-41 117q137 88 303 88q248 0 316 -207h4q104 207 338 207q199 0 301 -164q78 -127 78 -289zM1309 606v23q0 88 -45 157q-63 100 -181 101q-119 0 -192 -96q-63 -84 -66 -185h484zM662 500h-31q-383 0 -383 -224q0 -76 48 -119.5t120 -43.5q53 0 98 17t78 49t51.5 76 t18.5 95v150z" />
<glyph unicode="&#x4d6;" horiz-adv-x="987" d="M915 0h-761v1380h731v-147h-555v-438h524v-148h-524v-500h585v-147zM780 1725q-2 -111 -67.5 -176.5t-178.5 -65.5q-125 0 -188 76q-53 63 -58 166h103q23 -139 141 -140q135 0 146 140h102z" />
<glyph unicode="&#x4d7;" horiz-adv-x="1007" d="M934 553q0 -55 -6 -88h-680q4 -164 92 -254t242 -90q145 0 266 49l31 -127q-135 -59 -324 -59q-111 0 -199 34.5t-150.5 100t-95 157t-32.5 205.5q0 229 123 381q127 152 334 152q211 0 317 -162q82 -125 82 -299zM762 594q0 117 -47 190q-63 100 -195 101 q-123 0 -196 -99q-59 -80 -74 -192h512zM752 1360q-2 -111 -67.5 -176.5t-178.5 -65.5q-125 0 -188 76q-53 63 -58 166h103q23 -139 141 -140q135 0 146 140h102z" />
<glyph unicode="&#x4dc;" horiz-adv-x="1603" d="M250 1380l420 -612h45v612h174v-612h47l418 612h209l-480 -635q80 -8 137.5 -36.5t100.5 -74.5t72.5 -107.5t54.5 -135.5q35 -98 63.5 -196.5t69.5 -194.5h-182q-35 70 -60.5 160t-50.5 164q-25 70 -51.5 127t-65 98t-94 62.5t-137.5 21.5h-51v-633h-174v633h-53 q-82 0 -137.5 -21.5t-94.5 -62.5t-66.5 -98.5t-52.5 -126.5q-23 -74 -48 -164t-58 -160h-182q43 96 71.5 193.5t61.5 195.5q25 74 55.5 134.5t72.5 106.5t99 75.5t137 39.5l-479 635h209zM1086 1585q0 -43 -28.5 -72.5t-71.5 -29.5t-71 30.5t-28 71.5q0 43 29 72.5t72 29.5 t70.5 -29.5t27.5 -72.5zM715 1585q0 -43 -28.5 -72.5t-71.5 -29.5t-70.5 30.5t-27.5 71.5q0 43 29.5 72.5t70.5 29.5q43 0 70.5 -29.5t27.5 -72.5z" />
<glyph unicode="&#x4dd;" horiz-adv-x="1335" d="M229 991l322 -432h33v432h170v-432h30l322 432h205l-385 -450q111 -12 179.5 -78t113.5 -184q25 -72 50 -146t54 -133h-178q-23 45 -44.5 103.5t-43.5 123.5q-45 121 -114 166t-163 45h-26v-438h-170v438h-29q-102 0 -167.5 -46t-111.5 -167q-25 -66 -45 -122t-47 -103 h-172q29 59 54.5 133t50.5 143q47 121 115.5 186.5t179.5 78.5l-387 450h204zM952 1196q0 -43 -28.5 -72.5t-71.5 -29.5t-71 30.5t-28 71.5q0 43 29 72.5t72 29.5t70.5 -29.5t27.5 -72.5zM581 1196q0 -43 -28.5 -72.5t-71.5 -29.5t-70.5 30.5t-27.5 71.5q0 43 29.5 72.5 t70.5 29.5q43 0 70.5 -29.5t27.5 -72.5z" />
<glyph unicode="&#x4de;" horiz-adv-x="985" d="M102 1298q70 47 157 76t198 29q88 0 160.5 -22.5t125 -66.5t81 -106.5t28.5 -142.5q0 -129 -79 -218t-198 -118v-4q141 -16 233.5 -106.5t92.5 -239.5q0 -109 -41 -184.5t-109.5 -123.5t-155.5 -71t-179 -23t-183.5 21.5t-166.5 69.5l45 139q53 -33 132 -58.5t163 -25.5 q150 0 229.5 73.5t79.5 188.5q0 78 -33 129t-85 82t-117.5 43t-129.5 12h-74v135h74q66 0 123 19.5t99 54.5t67 81t25 99q0 104 -64.5 160.5t-175.5 56.5q-78 0 -148.5 -27.5t-123.5 -62.5zM768 1608q0 -43 -28.5 -72.5t-71.5 -29.5t-71 30.5t-28 71.5q0 43 29 72.5t72 29.5 t70.5 -29.5t27.5 -72.5zM397 1608q0 -43 -28.5 -72.5t-71.5 -29.5t-70.5 30.5t-27.5 71.5q0 43 29.5 72.5t70.5 29.5q43 0 70.5 -29.5t27.5 -72.5z" />
<glyph unicode="&#x4df;" horiz-adv-x="864" d="M225 575h82q113 0 181.5 45.5t68.5 114.5q0 66 -53 105t-135 39q-53 0 -118 -16.5t-116 -49.5l-49 119q74 45 158 62.5t170 17.5q55 0 114.5 -13.5t106.5 -44t77.5 -81t30.5 -121.5q0 -47 -19 -84t-50 -66t-70 -48t-80 -28v-4q55 -4 103.5 -23.5t84.5 -51t56 -74.5 t20 -99q0 -80 -36.5 -136t-96 -92t-134.5 -51t-150 -15q-86 0 -169 17t-151 54l49 125q53 -29 122 -47t134 -18q111 0 174.5 48t63.5 122q0 49 -23.5 82.5t-62.5 53t-90 28t-107 8.5h-86v122zM705 1216q0 -43 -28.5 -72.5t-71.5 -29.5t-71 30.5t-28 71.5q0 43 29 72.5 t72 29.5t70.5 -29.5t27.5 -72.5zM334 1216q0 -43 -28.5 -72.5t-71.5 -29.5t-70.5 30.5t-27.5 71.5q0 43 29.5 72.5t70.5 29.5q43 0 70.5 -29.5t27.5 -72.5z" />
<glyph unicode="&#x4e2;" horiz-adv-x="1323" d="M324 1380v-581q0 -164 -3.5 -304.5t-13.5 -279.5l6 -2q51 109 111.5 221.5t134.5 235.5l434 710h174v-1380h-168v588q0 168 3.5 299t13.5 262l-8 2q-49 -115 -113 -231.5t-133 -233.5l-420 -686h-186v1380h168zM891 1483h-457v109h457v-109z" />
<glyph unicode="&#x4e3;" horiz-adv-x="1112" d="M311 991v-418v-108t-1 -96t-3 -93.5t-4 -99.5h6q20 45 38 82t35 72t34.5 70.5t42.5 78.5l303 512h209v-991h-172v420q0 61 1 109.5t2 94.5t3 94t4 107h-6q-23 -47 -42.5 -87t-37.5 -76.5t-37.5 -71.5t-40.5 -72q-70 -117 -147.5 -252t-155.5 -266h-201v991h170zM785 1094 h-457v109h457v-109z" />
<glyph unicode="&#x4e4;" horiz-adv-x="1323" d="M324 1380v-581q0 -164 -3.5 -304.5t-13.5 -279.5l6 -2q51 109 111.5 221.5t134.5 235.5l434 710h174v-1380h-168v588q0 168 3.5 299t13.5 262l-8 2q-49 -115 -113 -231.5t-133 -233.5l-420 -686h-186v1380h168zM946 1585q0 -43 -28.5 -72.5t-71.5 -29.5t-71 30.5 t-28 71.5q0 43 29 72.5t72 29.5t70.5 -29.5t27.5 -72.5zM575 1585q0 -43 -28.5 -72.5t-71.5 -29.5t-70.5 30.5t-27.5 71.5q0 43 29.5 72.5t70.5 29.5q43 0 70.5 -29.5t27.5 -72.5z" />
<glyph unicode="&#x4e5;" horiz-adv-x="1112" d="M311 991v-418v-108t-1 -96t-3 -93.5t-4 -99.5h6q20 45 38 82t35 72t34.5 70.5t42.5 78.5l303 512h209v-991h-172v420q0 61 1 109.5t2 94.5t3 94t4 107h-6q-23 -47 -42.5 -87t-37.5 -76.5t-37.5 -71.5t-40.5 -72q-70 -117 -147.5 -252t-155.5 -266h-201v991h170zM840 1196 q0 -43 -28.5 -72.5t-71.5 -29.5t-71 30.5t-28 71.5q0 43 29 72.5t72 29.5t70.5 -29.5t27.5 -72.5zM469 1196q0 -43 -28.5 -72.5t-71.5 -29.5t-70.5 30.5t-27.5 71.5q0 43 29.5 72.5t70.5 29.5q43 0 70.5 -29.5t27.5 -72.5z" />
<glyph unicode="&#x4e6;" horiz-adv-x="1376" d="M1303 705q0 -309 -154 -508q-168 -217 -471 -217q-285 0 -451 210q-154 193 -153 490q0 301 157 502q172 221 467 221q287 0 453 -211q152 -194 152 -487zM1114 696q0 221 -100 377q-121 184 -326 184q-209 0 -330 -188q-100 -156 -100 -385q0 -219 102 -377 q119 -184 326 -184q213 0 330 188q98 160 98 385zM973 1608q0 -43 -28.5 -72.5t-71.5 -29.5t-71 30.5t-28 71.5q0 43 29 72.5t72 29.5t70.5 -29.5t27.5 -72.5zM602 1608q0 -43 -28.5 -72.5t-71.5 -29.5t-70.5 30.5t-27.5 71.5q0 43 29.5 72.5t70.5 29.5q43 0 70.5 -29.5 t27.5 -72.5z" />
<glyph unicode="&#x4e7;" horiz-adv-x="1101" d="M1024 504q0 -229 -125 -373q-133 -152 -356 -151q-215 0 -344 147q-121 145 -121 360q0 229 125 373q133 152 356 152q217 0 344 -148q121 -143 121 -360zM842 498q0 150 -70 256q-80 125 -221 125q-143 0 -225 -125q-70 -106 -70 -260q0 -147 72 -256q80 -125 221 -125 q137 0 221 127q72 113 72 258zM836 1216q0 -43 -28.5 -72.5t-71.5 -29.5t-71 30.5t-28 71.5q0 43 29 72.5t72 29.5t70.5 -29.5t27.5 -72.5zM465 1216q0 -43 -28.5 -72.5t-71.5 -29.5t-70.5 30.5t-27.5 71.5q0 43 29.5 72.5t70.5 29.5q43 0 70.5 -29.5t27.5 -72.5z" />
<glyph unicode="&#x4ec;" horiz-adv-x="1132" d="M246 778h626q-8 100 -42.5 187.5t-93 152t-139.5 101t-185 36.5q-82 0 -152 -20.5t-135 -48.5l-43 137q72 33 157 56.5t183 23.5q158 0 277.5 -55.5t199.5 -151.5t120 -227t40 -281q0 -170 -51.5 -302t-139.5 -223t-205.5 -138.5t-250.5 -47.5q-100 0 -189.5 18.5 t-161.5 53.5l37 141q59 -29 137 -46t152 -17q111 0 200 39t151.5 107.5t97 160.5t38.5 201h-628v143zM844 1608q0 -43 -28.5 -72.5t-71.5 -29.5t-71 30.5t-28 71.5q0 43 29 72.5t72 29.5t70.5 -29.5t27.5 -72.5zM473 1608q0 -43 -28.5 -72.5t-71.5 -29.5t-70.5 30.5 t-27.5 71.5q0 43 29.5 72.5t70.5 29.5q43 0 70.5 -29.5t27.5 -72.5z" />
<glyph unicode="&#x4ed;" horiz-adv-x="931" d="M186 569h488q-6 61 -28.5 116.5t-63.5 96.5t-101.5 64.5t-142.5 23.5q-76 0 -133.5 -18t-98.5 -37l-38 129q63 37 143 52.5t158 15.5q104 0 195 -36t157 -106q63 -66 98 -161t35 -217q0 -109 -34 -202t-100.5 -163t-162.5 -108.5t-219 -38.5q-78 0 -151.5 15t-133.5 44 l37 135q35 -16 94.5 -34.5t145.5 -18.5q147 0 239.5 83t102.5 242h-486v123zM737 1216q0 -43 -28.5 -72.5t-71.5 -29.5t-71 30.5t-28 71.5q0 43 29 72.5t72 29.5t70.5 -29.5t27.5 -72.5zM366 1216q0 -43 -28.5 -72.5t-71.5 -29.5t-70.5 30.5t-27.5 71.5q0 43 29.5 72.5 t70.5 29.5q43 0 70.5 -29.5t27.5 -72.5z" />
<glyph unicode="&#x4ee;" horiz-adv-x="1042" d="M205 1380l268 -589q25 -61 48.5 -123t45.5 -121h4q16 53 37 114.5t45 133.5l211 585h187l-281 -710q-29 -70 -57.5 -142.5t-60 -142.5t-65.5 -131t-69 -109q-66 -86 -139.5 -128t-165.5 -42q-68 0 -100 13l18 145q20 -6 62 -6q53 0 95 22.5t73.5 58.5t55 78t40.5 79 q10 23 8 40t-14 41l-447 934h201zM756 1483h-457v109h457v-109z" />
<glyph unicode="&#x4ef;" horiz-adv-x="948" d="M932 991l-262 -702q-49 -133 -92 -230.5t-76 -162.5q-78 -147 -166 -228q-109 -96 -217 -117l-47 150q88 29 157 90q92 78 146 199q14 27 14 41q0 12 -12 47l-357 913h193l211 -585q16 -41 30.5 -91.5t30.5 -109.5h7q10 33 24 84t37 121l190 581h189zM705 1094h-457v109 h457v-109z" />
<glyph unicode="&#x4f0;" horiz-adv-x="1042" d="M205 1380l268 -589q25 -61 48.5 -123t45.5 -121h4q16 53 37 114.5t45 133.5l211 585h187l-281 -710q-29 -70 -57.5 -142.5t-60 -142.5t-65.5 -131t-69 -109q-66 -86 -139.5 -128t-165.5 -42q-68 0 -100 13l18 145q20 -6 62 -6q53 0 95 22.5t73.5 58.5t55 78t40.5 79 q10 23 8 40t-14 41l-447 934h201zM811 1585q0 -43 -28.5 -72.5t-71.5 -29.5t-71 30.5t-28 71.5q0 43 29 72.5t72 29.5t70.5 -29.5t27.5 -72.5zM440 1585q0 -43 -28.5 -72.5t-71.5 -29.5t-70.5 30.5t-27.5 71.5q0 43 29.5 72.5t70.5 29.5q43 0 70.5 -29.5t27.5 -72.5z" />
<glyph unicode="&#x4f1;" horiz-adv-x="948" d="M932 991l-262 -702q-49 -133 -92 -230.5t-76 -162.5q-78 -147 -166 -228q-109 -96 -217 -117l-47 150q88 29 157 90q92 78 146 199q14 27 14 41q0 12 -12 47l-357 913h193l211 -585q16 -41 30.5 -91.5t30.5 -109.5h7q10 33 24 84t37 121l190 581h189zM760 1196 q0 -43 -28.5 -72.5t-71.5 -29.5t-71 30.5t-28 71.5q0 43 29 72.5t72 29.5t70.5 -29.5t27.5 -72.5zM389 1196q0 -43 -28.5 -72.5t-71.5 -29.5t-70.5 30.5t-27.5 71.5q0 43 29.5 72.5t70.5 29.5q43 0 70.5 -29.5t27.5 -72.5z" />
<glyph unicode="&#x4f2;" horiz-adv-x="1042" d="M205 1380l268 -589q25 -61 48.5 -123t45.5 -121h4q16 53 37 114.5t45 133.5l211 585h187l-281 -710q-29 -70 -57.5 -142.5t-60 -142.5t-65.5 -131t-69 -109q-66 -86 -139.5 -128t-165.5 -42q-68 0 -100 13l18 145q20 -6 62 -6q53 0 95 22.5t73.5 58.5t55 78t40.5 79 q10 23 8 40t-14 41l-447 934h201zM840 1761l-223 -279h-111l162 279h172zM549 1761l-225 -279h-109l162 279h172z" />
<glyph unicode="&#x4f3;" horiz-adv-x="948" d="M932 991l-262 -702q-49 -133 -92 -230.5t-76 -162.5q-78 -147 -166 -228q-109 -96 -217 -117l-47 150q88 29 157 90q92 78 146 199q14 27 14 41q0 12 -12 47l-357 913h193l211 -585q16 -41 30.5 -91.5t30.5 -109.5h7q10 33 24 84t37 121l190 581h189zM789 1372l-223 -279 h-111l162 279h172zM498 1372l-225 -279h-109l162 279h172z" />
<glyph unicode="&#x4f4;" horiz-adv-x="1202" d="M322 1380v-442q0 -141 70.5 -219t213.5 -78q72 0 141.5 22.5t122.5 57.5v659h179v-1380h-179v582h-4q-72 -41 -152.5 -63.5t-168.5 -22.5q-68 0 -138.5 17t-129 63.5t-95.5 127t-37 207.5v469h177zM881 1585q0 -43 -28.5 -72.5t-71.5 -29.5t-71 30.5t-28 71.5 q0 43 29 72.5t72 29.5t70.5 -29.5t27.5 -72.5zM510 1585q0 -43 -28.5 -72.5t-71.5 -29.5t-70.5 30.5t-27.5 71.5q0 43 29.5 72.5t70.5 29.5q43 0 70.5 -29.5t27.5 -72.5z" />
<glyph unicode="&#x4f5;" horiz-adv-x="1030" d="M305 991v-334q0 -94 42 -152.5t157 -58.5q57 0 112.5 19.5t96.5 48.5v477h176v-1003h-176v401h-4q-49 -35 -121 -55.5t-142 -20.5q-139 0 -228 76t-89 246v356h176zM793 1196q0 -43 -28.5 -72.5t-71.5 -29.5t-71 30.5t-28 71.5q0 43 29 72.5t72 29.5t70.5 -29.5 t27.5 -72.5zM422 1196q0 -43 -28.5 -72.5t-71.5 -29.5t-70.5 30.5t-27.5 71.5q0 43 29.5 72.5t70.5 29.5q43 0 70.5 -29.5t27.5 -72.5z" />
<glyph unicode="&#x4f8;" horiz-adv-x="1497" d="M330 1380v-516q29 4 78 7t81 3q104 0 198.5 -24.5t165.5 -76.5t113 -134t42 -197q0 -96 -28 -167.5t-77 -124.5q-41 -45 -95 -76t-115.5 -50.5t-130 -27.5t-136.5 -8q-92 0 -160.5 5t-111.5 11v1376h176zM330 137q27 -6 59.5 -8t77.5 -2q72 0 136.5 18.5t113.5 57.5 t77.5 97t28.5 136q0 80 -30.5 137.5t-80.5 92t-115 51t-132 16.5q-47 0 -83 -3t-52 -7v-586zM1335 1380v-1380h-174v1380h174zM1028 1585q0 -43 -28.5 -72.5t-71.5 -29.5t-71 30.5t-28 71.5q0 43 29 72.5t72 29.5t70.5 -29.5t27.5 -72.5zM657 1585q0 -43 -28.5 -72.5 t-71.5 -29.5t-70.5 30.5t-27.5 71.5q0 43 29.5 72.5t70.5 29.5q43 0 70.5 -29.5t27.5 -72.5z" />
<glyph unicode="&#x4f9;" horiz-adv-x="1337" d="M317 991v-338q29 6 71 9.5t89 3.5q78 0 154 -17.5t134 -57.5t94 -102.5t36 -154.5q0 -78 -26.5 -133.5t-73.5 -96.5q-41 -35 -89.5 -57t-99.5 -34.5t-103 -17.5t-100 -5q-74 0 -140 4t-122 10v987h176zM317 125q27 -4 55.5 -6t65.5 -2q51 0 100.5 11t89.5 36.5t64.5 65.5 t24.5 98q0 59 -23.5 99t-61.5 64.5t-87 35t-99 10.5q-37 0 -68.5 -3.5t-60.5 -7.5v-401zM1196 991v-991h-176v991h176zM952 1196q0 -43 -28.5 -72.5t-71.5 -29.5t-71 30.5t-28 71.5q0 43 29 72.5t72 29.5t70.5 -29.5t27.5 -72.5zM581 1196q0 -43 -28.5 -72.5t-71.5 -29.5 t-70.5 30.5t-27.5 71.5q0 43 29.5 72.5t70.5 29.5q43 0 70.5 -29.5t27.5 -72.5z" />
<glyph unicode="&#x2000;" horiz-adv-x="888" />
<glyph unicode="&#x2001;" horiz-adv-x="1776" />
<glyph unicode="&#x2002;" horiz-adv-x="888" />
<glyph unicode="&#x2003;" horiz-adv-x="1776" />
<glyph unicode="&#x2004;" horiz-adv-x="592" />
<glyph unicode="&#x2005;" horiz-adv-x="444" />
<glyph unicode="&#x2006;" horiz-adv-x="296" />
<glyph unicode="&#x2007;" horiz-adv-x="296" />
<glyph unicode="&#x2008;" horiz-adv-x="222" />
<glyph unicode="&#x2009;" horiz-adv-x="355" />
<glyph unicode="&#x200a;" horiz-adv-x="98" />
<glyph unicode="&#x2010;" horiz-adv-x="624" d="M563 487h-502v131h502v-131z" />
<glyph unicode="&#x2011;" horiz-adv-x="624" d="M563 487h-502v131h502v-131z" />
<glyph unicode="&#x2012;" horiz-adv-x="624" d="M563 487h-502v131h502v-131z" />
<glyph unicode="&#x2013;" horiz-adv-x="1024" d="M963 461h-902v121h902v-121z" />
<glyph unicode="&#x2014;" horiz-adv-x="2048" d="M1843 461h-1638v121h1638v-121z" />
<glyph unicode="&#x2018;" horiz-adv-x="419" d="M373 1415q-82 -223 -121 -477l-182 -20q84 305 190 485z" />
<glyph unicode="&#x2019;" horiz-adv-x="419" d="M373 1415q-84 -303 -191 -483l-114 -14q84 225 120 479z" />
<glyph unicode="&#x201a;" horiz-adv-x="419" d="M346 256q-84 -301 -190 -481l-113 -15q82 225 119 478z" />
<glyph unicode="&#x201c;" horiz-adv-x="718" d="M674 1415q-82 -223 -121 -477l-182 -20q82 305 190 485zM373 1415q-82 -223 -121 -477l-184 -20q84 305 192 485z" />
<glyph unicode="&#x201d;" horiz-adv-x="718" d="M674 1415q-84 -303 -193 -483l-112 -14q82 225 120 479zM371 1415q-82 -303 -191 -483l-112 -14q82 225 120 479z" />
<glyph unicode="&#x201e;" horiz-adv-x="722" d="M647 256q-84 -301 -192 -481l-113 -15q82 225 121 478zM344 256q-82 -301 -190 -481l-113 -15q82 225 121 478z" />
<glyph unicode="&#x2026;" horiz-adv-x="2048" d="M1823 106q0 -57 -34 -91.5t-89 -34.5q-51 0 -84 36.5t-33 89.5t34 91.5t87 38.5q55 0 87 -37.5t32 -92.5zM1143 106q0 -57 -34 -91.5t-89 -34.5q-53 0 -85 36.5t-32 89.5t33 91.5t88 38.5q53 0 86 -37.5t33 -92.5zM463 106q0 -57 -34 -91.5t-89 -34.5q-53 0 -86 35.5 t-33 90.5q0 53 34 91.5t87 38.5q55 0 88 -37.5t33 -92.5z" />
<glyph unicode="&#x202f;" horiz-adv-x="355" />
<glyph unicode="&#x2039;" horiz-adv-x="516" d="M471 141h-145l-269 375l269 375h143l-268 -375z" />
<glyph unicode="&#x203a;" horiz-adv-x="516" d="M459 516l-269 -375h-143l270 375l-270 375h143z" />
<glyph unicode="&#x205f;" horiz-adv-x="444" />
<glyph unicode="&#x20ac;" d="M926 1151q-100 63 -197 63q-281 0 -342 -350h473l-22 -100h-461q-2 -27 -3 -52.5t-1 -54.5v-63h424l-23 -100h-393q49 -377 324 -377q109 0 206 67l33 -131q-96 -74 -254 -73q-199 0 -325.5 133t-159.5 381h-160l23 100h129q-2 14 -2 28.5v30.5q0 57 6 111h-156l23 100 h145q43 229 173 359.5t329 130.5q162 0 246 -66z" />
<glyph unicode="&#x2122;" horiz-adv-x="1622" d="M1544 565h-121l-34 494q0 70 -3 217h-6q-43 -158 -67 -229l-168 -472h-94l-164 484q-14 39 -60 217h-4q-2 -72 -6 -215l-31 -496h-116l61 815h162l158 -446q12 -33 57 -201h4q16 72 55 203l158 444h158zM639 1276h-244v-711h-123v711h-241v104h608v-104z" />
<glyph unicode="&#x25fc;" horiz-adv-x="993" d="M0 993h993v-993h-993v993z" />
</font>
</defs>
</svg>
